<mxfile host="app.diagrams.net" agent="Mozilla/5.0 (Macintosh; Intel Mac OS X 10_15_7) AppleWebKit/537.36 (KHTML, like Gecko) Chrome/141.0.0.0 Safari/537.36" version="28.2.7">
  <diagram id="C5RBs43oDa-KdzZeNtuy" name="Page-1">
    <mxGraphModel dx="2678" dy="2238" grid="1" gridSize="10" guides="1" tooltips="1" connect="1" arrows="1" fold="1" page="1" pageScale="1" pageWidth="827" pageHeight="1169" math="0" shadow="0">
      <root>
        <mxCell id="WIyWlLk6GJQsqaUBKTNV-0" />
        <mxCell id="WIyWlLk6GJQsqaUBKTNV-1" parent="WIyWlLk6GJQsqaUBKTNV-0" />
        <UserObject label="" plantUmlData="{&#xa;  &quot;data&quot;: &quot;@startuml\nskinparam classAttributeIconSize 0\nskinparam dpi 140\n\n&#39; ====== Acteurs / Personnes ======\nabstract class Personne {\n  - nom : String\n  - prenom : String\n  - email : String\n  + getNom() : String\n  + getPrenom() : String\n  + getEmail() : String\n  {abstract} + getRole() : String\n}\n\nclass Client extends Personne {\n  - dateInscription : LocalDate\n  + filtrer(critères) : List&lt;Hebergement&gt;\n  + reserver(p:Periode, h:Hebergement) : Reservation\n  + annuler(r:Reservation) : void\n  + calculerMontant(h:Hebergement, p:Periode, nbPers:int) : double\n  + getRole() : String\n}\n\nclass Administrateur extends Personne {\n  + ajouterHebergement(h:Hebergement) : void\n  + supprimerHebergement(h:Hebergement) : void\n  + gererOffresReduction() : void\n  + getRole() : String\n}\n\nclass NouveauClient extends Client {\n  + reduction() : double\n}\n\nclass AncienClient extends Client {\n  - nbReservations : int\n  + reduction() : double\n}\n\n&#39; ====== Réservable / Hébergements ======\ninterface Reservable {\n  + estDisponible(p:Periode) : boolean\n  + calculerPrix(p:Periode, nbPers:int) : double\n  + reserver(p:Periode, c:Client) : Reservation\n  + annulerReservation(r:Reservation) : void\n  + estReservee(date:LocalDate) : boolean\n  + afficherDetails() : String\n}\n\nabstract class Hebergement implements Reservable, Comparable&lt;Hebergement&gt; {\n  - id : String\n  - nom : String\n  - adresse : String\n  - type : String\n  - capacite : int\n  - prixNuit : double\n  - disponibilites : List&lt;Periode&gt;\n  - notes : List&lt;int&gt;\n  + compareTo(h:Hebergement) : int\n}\n\nclass ChambreHotel extends Hebergement\nclass Appartement extends Hebergement\nclass Villa extends Hebergement\n\n&#39; ====== Réservations, périodes, collections ======\nclass Reservation {\n  - id : String\n  - statut : Statut\n  - client : Client\n  - hebergement : Hebergement\n  - debut : LocalDate\n  - fin : LocalDate\n  - total : double\n  - dateCreation : LocalDateTime\n  + calculerTotal() : double\n  + appliquerReduction(pct:double) : void\n  + annuler() : void\n  + estActive() : boolean\n}\n\nenum Statut {\n  EN_ATTENTE\n  CONFIRMEE\n  ANNULEE\n}\n\nclass Periode {\n  - debut : LocalDate\n  - fin : LocalDate\n  + nbNuits() : long\n  + chevauche(p:Periode) : boolean\n}\n\nclass CollectionHebergements {\n  - items : List&lt;Hebergement&gt;\n  + ajouter(h:Hebergement) : void\n  + trierParPrix() : List&lt;Hebergement&gt;\n  + trier(cmp:Comparator&lt;Hebergement&gt;) : List&lt;Hebergement&gt;\n}\n\n&#39; ====== Relations ======\nPersonne &lt;|-- Client\nPersonne &lt;|-- Administrateur\nClient &lt;|-- NouveauClient\nClient &lt;|-- AncienClient\n\nReservable &lt;|.. Hebergement\nHebergement &lt;|-- ChambreHotel\nHebergement &lt;|-- Appartement\nHebergement &lt;|-- Villa\n\nClient \&quot;1\&quot; o-- \&quot;0..*\&quot; Reservation : effectue &gt;\nHebergement \&quot;1\&quot; o-- \&quot;0..*\&quot; Reservation : concerne &gt;\nReservation --&gt; \&quot;1\&quot; Periode : période\nHebergement \&quot;1\&quot; o-- \&quot;0..*\&quot; Periode : disponibilites\nCollectionHebergements \&quot;1\&quot; *-- \&quot;0..*\&quot; Hebergement : items\n\n@enduml\n&quot;,&#xa;  &quot;format&quot;: &quot;svg&quot;&#xa;}" id="K9P-eWdqyrSn05EamodM-0">
          <mxCell style="shape=image;noLabel=1;verticalAlign=top;aspect=fixed;imageAspect=0;image=data:image/svg+xml,PHN2ZyB4bWxucz0iaHR0cDovL3d3dy53My5vcmcvMjAwMC9zdmciIHhtbG5zOnhsaW5rPSJodHRwOi8vd3d3LnczLm9yZy8xOTk5L3hsaW5rIiBjb250ZW50U3R5bGVUeXBlPSJ0ZXh0L2NzcyIgZGF0YS1kaWFncmFtLXR5cGU9IkNMQVNTIiBoZWlnaHQ9IjEzMjcuMDgzM3B4IiBwcmVzZXJ2ZUFzcGVjdFJhdGlvPSJub25lIiBzdHlsZT0id2lkdGg6MjMzNHB4O2hlaWdodDoxMzI3cHg7YmFja2dyb3VuZDojRkZGRkZGOyIgdmVyc2lvbj0iMS4xIiB2aWV3Qm94PSIwIDAgMjMzNCAxMzI3IiB3aWR0aD0iMjMzNC43OTE3cHgiIHpvb21BbmRQYW49Im1hZ25pZnkiPjxkZWZzLz48Zz48IS0tY2xhc3MgUGVyc29ubmUtLT48ZyBjbGFzcz0iZW50aXR5IiBkYXRhLWVudGl0eT0iUGVyc29ubmUiIGRhdGEtc291cmNlLWxpbmU9IjUiIGRhdGEtdWlkPSJlbnQwMDAyIiBpZD0iZW50aXR5X1BlcnNvbm5lIj48cmVjdCBmaWxsPSIjRjFGMUYxIiBoZWlnaHQ9IjIyMi45NjU1IiByeD0iMy42NDU4IiByeT0iMy42NDU4IiBzdHlsZT0ic3Ryb2tlOiMxODE4MTg7c3Ryb2tlLXdpZHRoOjAuNzI5MjsiIHdpZHRoPSIyMzEuODc1IiB4PSI0OTIuOTE2NyIgeT0iMTAuMjA4MyIvPjxlbGxpcHNlIGN4PSI1NjEuODIyOSIgY3k9IjMzLjU0MTciIGZpbGw9IiNBOURDREYiIHJ4PSIxNi4wNDE3IiByeT0iMTYuMDQxNyIgc3R5bGU9InN0cm9rZTojMTgxODE4O3N0cm9rZS13aWR0aDoxLjQ1ODM7Ii8+PHBhdGggZD0iTTU1Ni44MDk5LDMwLjA3ODEgTDU1Ni44MDk5LDQxLjkyNzEgTDU1OS4zNjIsNDEuOTI3MSBRNTU5LjM2Miw0MS45MjcxIDU1OS4zNjIsMzUuNzI5MiBMNTY0LjU1NzMsMzUuNzI5MiBRNTY0LjU1NzMsMzUuNzI5MiA1NjQuNTU3Myw0MS45MjcxIEw1NjcuMTA5NCw0MS45MjcxIEw1NjcuMTA5NCwzMC4wNzgxIEw1NjQuNTU3MywzMC4wNzgxIFE1NjQuNTU3MywzMC4wNzgxIDU2NC41NTczLDMzLjE3NzEgTDU1OS4zNjIsMzMuMTc3MSBRNTU5LjM2MiwzMy4xNzcxIDU1OS4zNjIsMzAuMDc4MSBMNTU2LjgwOTksMzAuMDc4MSBaIE01NTguMzU5NCwzMS4wODA3IEw1NjAuOTExNSwzMS4wODA3IFE1NjAuOTExNSwzMS4wODA3IDU2MC45MTE1LDI2Ljk3OTIgTDU1OC4zNTk0LDI2Ljk3OTIgUTU1OC4zNTk0LDI2Ljk3OTIgNTU4LjM1OTQsMzEuMDgwNyBaIE01NjUuNTU5OSwzMS4wODA3IFE1NjUuNTU5OSwzMS4wODA3IDU2NS41NTk5LDI2Ljk3OTIgTDU2My4wMDc4LDI2Ljk3OTIgUTU2My4wMDc4LDI2Ljk3OTIgNTYzLjAwNzgsMzEuMDgwNyBMNTY1LjU1OTksMzEuMDgwNyBaIE01NTkuOTA4OSwyNy45ODE4IEw1NjQuMDEwNCwyNy45ODE4IEw1NjQuMDEwNCwyNS40Mjk3IEw1NTkuOTA4OSwyNS40Mjk3IEw1NTkuOTA4OSwyNy45ODE4IFogIiBmaWxsPSIjMDAwMDAwIi8+PHRleHQgZmlsbD0iIzAwMDAwMCIgZm9udC1mYW1pbHk9InNhbnMtc2VyaWYiIGZvbnQtc2l6ZT0iMjAuNDE2NyIgZm9udC1zdHlsZT0iaXRhbGljIiBsZW5ndGhBZGp1c3Q9InNwYWNpbmciIHRleHRMZW5ndGg9IjgxLjY2NjciIHg9IjU5MS43MTg4IiB5PSI0MS45MTU3Ij5QZXJzb25uZTwvdGV4dD48bGluZSBzdHlsZT0ic3Ryb2tlOiMxODE4MTg7c3Ryb2tlLXdpZHRoOjAuNzI5MjsiIHgxPSI0OTQuMzc1IiB4Mj0iNzIzLjMzMzMiIHkxPSI1Ni44NzUiIHkyPSI1Ni44NzUiLz48dGV4dCBmaWxsPSIjMDAwMDAwIiBmb250LWZhbWlseT0ic2Fucy1zZXJpZiIgZm9udC1zaXplPSIyMC40MTY3IiBsZW5ndGhBZGp1c3Q9InNwYWNpbmciIHRleHRMZW5ndGg9IjEzMi43MDgzIiB4PSI1MDEuNjY2NyIgeT0iODIuMDA4NSI+LW5vbSA6IFN0cmluZzwvdGV4dD48dGV4dCBmaWxsPSIjMDAwMDAwIiBmb250LWZhbWlseT0ic2Fucy1zZXJpZiIgZm9udC1zaXplPSIyMC40MTY3IiBsZW5ndGhBZGp1c3Q9InNwYWNpbmciIHRleHRMZW5ndGg9IjE2My4zMzMzIiB4PSI1MDEuNjY2NyIgeT0iMTAzLjg2MDciPi1wcmVub20gOiBTdHJpbmc8L3RleHQ+PHRleHQgZmlsbD0iIzAwMDAwMCIgZm9udC1mYW1pbHk9InNhbnMtc2VyaWYiIGZvbnQtc2l6ZT0iMjAuNDE2NyIgbGVuZ3RoQWRqdXN0PSJzcGFjaW5nIiB0ZXh0TGVuZ3RoPSIxNTMuMTI1IiB4PSI1MDEuNjY2NyIgeT0iMTI1LjcxMjkiPi1lbWFpbCA6IFN0cmluZzwvdGV4dD48bGluZSBzdHlsZT0ic3Ryb2tlOiMxODE4MTg7c3Ryb2tlLXdpZHRoOjAuNzI5MjsiIHgxPSI0OTQuMzc1IiB4Mj0iNzIzLjMzMzMiIHkxPSIxMzQuMDk4MyIgeTI9IjEzNC4wOTgzIi8+PHRleHQgZmlsbD0iIzAwMDAwMCIgZm9udC1mYW1pbHk9InNhbnMtc2VyaWYiIGZvbnQtc2l6ZT0iMjAuNDE2NyIgbGVuZ3RoQWRqdXN0PSJzcGFjaW5nIiB0ZXh0TGVuZ3RoPSIxODMuNzUiIHg9IjUwMS42NjY3IiB5PSIxNTkuMjMxOCI+K2dldE5vbSgpIDogU3RyaW5nPC90ZXh0Pjx0ZXh0IGZpbGw9IiMwMDAwMDAiIGZvbnQtZmFtaWx5PSJzYW5zLXNlcmlmIiBmb250LXNpemU9IjIwLjQxNjciIGxlbmd0aEFkanVzdD0ic3BhY2luZyIgdGV4dExlbmd0aD0iMjE0LjM3NSIgeD0iNTAxLjY2NjciIHk9IjE4MS4wODQiPitnZXRQcmVub20oKSA6IFN0cmluZzwvdGV4dD48dGV4dCBmaWxsPSIjMDAwMDAwIiBmb250LWZhbWlseT0ic2Fucy1zZXJpZiIgZm9udC1zaXplPSIyMC40MTY3IiBsZW5ndGhBZGp1c3Q9InNwYWNpbmciIHRleHRMZW5ndGg9IjIwNC4xNjY3IiB4PSI1MDEuNjY2NyIgeT0iMjAyLjkzNjIiPitnZXRFbWFpbCgpIDogU3RyaW5nPC90ZXh0Pjx0ZXh0IGZpbGw9IiMwMDAwMDAiIGZvbnQtZmFtaWx5PSJzYW5zLXNlcmlmIiBmb250LXNpemU9IjIwLjQxNjciIGZvbnQtc3R5bGU9Iml0YWxpYyIgbGVuZ3RoQWRqdXN0PSJzcGFjaW5nIiB0ZXh0TGVuZ3RoPSIxOTMuOTU4MyIgeD0iNTAxLjY2NjciIHk9IjIyNC43ODg0Ij4rZ2V0Um9sZSgpIDogU3RyaW5nPC90ZXh0PjwvZz48IS0tY2xhc3MgQ2xpZW50LS0+PGcgY2xhc3M9ImVudGl0eSIgZGF0YS1lbnRpdHk9IkNsaWVudCIgZGF0YS1zb3VyY2UtbGluZT0iMTUiIGRhdGEtdWlkPSJlbnQwMDAzIiBpZD0iZW50aXR5X0NsaWVudCI+PHJlY3QgZmlsbD0iI0YxRjFGMSIgaGVpZ2h0PSIyMDEuMTEzMyIgcng9IjMuNjQ1OCIgcnk9IjMuNjQ1OCIgc3R5bGU9InN0cm9rZTojMTgxODE4O3N0cm9rZS13aWR0aDowLjcyOTI7IiB3aWR0aD0iNjYwLjYyNSIgeD0iMTAuMjA4MyIgeT0iMzc1LjUyMDgiLz48ZWxsaXBzZSBjeD0iMzAzLjY5NzkiIGN5PSIzOTguODU0MiIgZmlsbD0iI0FERDFCMiIgcng9IjE2LjA0MTciIHJ5PSIxNi4wNDE3IiBzdHlsZT0ic3Ryb2tlOiMxODE4MTg7c3Ryb2tlLXdpZHRoOjEuNDU4MzsiLz48cGF0aCBkPSJNMzAwLjIzNDQsNDA1LjA1MjEgTDMwMC4yMzQ0LDQwNy42MDQyIEwzMDcuNDM0OSw0MDcuNjA0MiBMMzA3LjQzNDksNDA1LjA1MjEgTDMwMC4yMzQ0LDQwNS4wNTIxIFogTTMwMS4yMzcsNDA2LjA1NDcgUTMwMS4yMzcsNDA2LjA1NDcgMzAxLjIzNywzOTIuNjU2MyBMMjk4LjY4NDksMzkyLjY1NjMgUTI5OC42ODQ5LDM5Mi42NTYzIDI5OC42ODQ5LDQwNi4wNTQ3IEwzMDEuMjM3LDQwNi4wNTQ3IFogTTMwNi40MzIzLDQwNi4wNTQ3IEwzMDguOTg0NCw0MDYuMDU0NyBRMzA4Ljk4NDQsNDA2LjA1NDcgMzA4Ljk4NDQsNDAxLjk1MzEgTDMwNi40MzIzLDQwMS45NTMxIFEzMDYuNDMyMyw0MDEuOTUzMSAzMDYuNDMyMyw0MDYuMDU0NyBaIE0zMDYuNDMyMywzOTIuNjU2MyBRMzA2LjQzMjMsMzkyLjY1NjMgMzA2LjQzMjMsMzk2Ljc1NzggTDMwOC45ODQ0LDM5Ni43NTc4IFEzMDguOTg0NCwzOTYuNzU3OCAzMDguOTg0NCwzOTIuNjU2MyBMMzA2LjQzMjMsMzkyLjY1NjMgWiBNMzAwLjIzNDQsMzkzLjY1ODkgTDMwNy40MzQ5LDM5My42NTg5IEwzMDcuNDM0OSwzOTEuMTA2OCBMMzAwLjIzNDQsMzkxLjEwNjggTDMwMC4yMzQ0LDM5My42NTg5IFogIiBmaWxsPSIjMDAwMDAwIi8+PHRleHQgZmlsbD0iIzAwMDAwMCIgZm9udC1mYW1pbHk9InNhbnMtc2VyaWYiIGZvbnQtc2l6ZT0iMjAuNDE2NyIgbGVuZ3RoQWRqdXN0PSJzcGFjaW5nIiB0ZXh0TGVuZ3RoPSI2MS4yNSIgeD0iMzMzLjU5MzgiIHk9IjQwNy4yMjgyIj5DbGllbnQ8L3RleHQ+PGxpbmUgc3R5bGU9InN0cm9rZTojMTgxODE4O3N0cm9rZS13aWR0aDowLjcyOTI7IiB4MT0iMTEuNjY2NyIgeDI9IjY2OS4zNzUiIHkxPSI0MjIuMTg3NSIgeTI9IjQyMi4xODc1Ii8+PHRleHQgZmlsbD0iIzAwMDAwMCIgZm9udC1mYW1pbHk9InNhbnMtc2VyaWYiIGZvbnQtc2l6ZT0iMjAuNDE2NyIgbGVuZ3RoQWRqdXN0PSJzcGFjaW5nIiB0ZXh0TGVuZ3RoPSIyODUuODMzMyIgeD0iMTguOTU4MyIgeT0iNDQ3LjMyMSI+LWRhdGVJbnNjcmlwdGlvbiA6IExvY2FsRGF0ZTwvdGV4dD48bGluZSBzdHlsZT0ic3Ryb2tlOiMxODE4MTg7c3Ryb2tlLXdpZHRoOjAuNzI5MjsiIHgxPSIxMS42NjY3IiB4Mj0iNjY5LjM3NSIgeTE9IjQ1NS43MDY0IiB5Mj0iNDU1LjcwNjQiLz48dGV4dCBmaWxsPSIjMDAwMDAwIiBmb250LWZhbWlseT0ic2Fucy1zZXJpZiIgZm9udC1zaXplPSIyMC40MTY3IiBsZW5ndGhBZGp1c3Q9InNwYWNpbmciIHRleHRMZW5ndGg9IjM4Ny45MTY3IiB4PSIxOC45NTgzIiB5PSI0ODAuODM5OCI+K2ZpbHRyZXIoY3JpdCYjMjMyO3JlcykgOiBMaXN0Jmx0O0hlYmVyZ2VtZW50Jmd0OzwvdGV4dD48dGV4dCBmaWxsPSIjMDAwMDAwIiBmb250LWZhbWlseT0ic2Fucy1zZXJpZiIgZm9udC1zaXplPSIyMC40MTY3IiBsZW5ndGhBZGp1c3Q9InNwYWNpbmciIHRleHRMZW5ndGg9IjUwMC4yMDgzIiB4PSIxOC45NTgzIiB5PSI1MDIuNjkyMSI+K3Jlc2VydmVyKHA6UGVyaW9kZSwgaDpIZWJlcmdlbWVudCkgOiBSZXNlcnZhdGlvbjwvdGV4dD48dGV4dCBmaWxsPSIjMDAwMDAwIiBmb250LWZhbWlseT0ic2Fucy1zZXJpZiIgZm9udC1zaXplPSIyMC40MTY3IiBsZW5ndGhBZGp1c3Q9InNwYWNpbmciIHRleHRMZW5ndGg9IjMwNi4yNSIgeD0iMTguOTU4MyIgeT0iNTI0LjU0NDMiPithbm51bGVyKHI6UmVzZXJ2YXRpb24pIDogdm9pZDwvdGV4dD48dGV4dCBmaWxsPSIjMDAwMDAwIiBmb250LWZhbWlseT0ic2Fucy1zZXJpZiIgZm9udC1zaXplPSIyMC40MTY3IiBsZW5ndGhBZGp1c3Q9InNwYWNpbmciIHRleHRMZW5ndGg9IjY0My4xMjUiIHg9IjE4Ljk1ODMiIHk9IjU0Ni4zOTY1Ij4rY2FsY3VsZXJNb250YW50KGg6SGViZXJnZW1lbnQsIHA6UGVyaW9kZSwgbmJQZXJzOmludCkgOiBkb3VibGU8L3RleHQ+PHRleHQgZmlsbD0iIzAwMDAwMCIgZm9udC1mYW1pbHk9InNhbnMtc2VyaWYiIGZvbnQtc2l6ZT0iMjAuNDE2NyIgbGVuZ3RoQWRqdXN0PSJzcGFjaW5nIiB0ZXh0TGVuZ3RoPSIxOTMuOTU4MyIgeD0iMTguOTU4MyIgeT0iNTY4LjI0ODciPitnZXRSb2xlKCkgOiBTdHJpbmc8L3RleHQ+PC9nPjwhLS1jbGFzcyBBZG1pbmlzdHJhdGV1ci0tPjxnIGNsYXNzPSJlbnRpdHkiIGRhdGEtZW50aXR5PSJBZG1pbmlzdHJhdGV1ciIgZGF0YS1zb3VyY2UtbGluZT0iMjQiIGRhdGEtdWlkPSJlbnQwMDA1IiBpZD0iZW50aXR5X0FkbWluaXN0cmF0ZXVyIj48cmVjdCBmaWxsPSIjRjFGMUYxIiBoZWlnaHQ9IjE1Ny40MDg5IiByeD0iMy42NDU4IiByeT0iMy42NDU4IiBzdHlsZT0ic3Ryb2tlOiMxODE4MTg7c3Ryb2tlLXdpZHRoOjAuNzI5MjsiIHdpZHRoPSI0NTYuNDU4MyIgeD0iNzIxLjg3NSIgeT0iMzk3LjM5NTgiLz48ZWxsaXBzZSBjeD0iODcyLjQ0NzkiIGN5PSI0MjAuNzI5MiIgZmlsbD0iI0FERDFCMiIgcng9IjE2LjA0MTciIHJ5PSIxNi4wNDE3IiBzdHlsZT0ic3Ryb2tlOiMxODE4MTg7c3Ryb2tlLXdpZHRoOjEuNDU4MzsiLz48cGF0aCBkPSJNODY4Ljk4NDQsNDI2LjkyNzEgTDg2OC45ODQ0LDQyOS40NzkyIEw4NzYuMTg0OSw0MjkuNDc5MiBMODc2LjE4NDksNDI2LjkyNzEgTDg2OC45ODQ0LDQyNi45MjcxIFogTTg2OS45ODcsNDI3LjkyOTcgUTg2OS45ODcsNDI3LjkyOTcgODY5Ljk4Nyw0MTQuNTMxMyBMODY3LjQzNDksNDE0LjUzMTMgUTg2Ny40MzQ5LDQxNC41MzEzIDg2Ny40MzQ5LDQyNy45Mjk3IEw4NjkuOTg3LDQyNy45Mjk3IFogTTg3NS4xODIzLDQyNy45Mjk3IEw4NzcuNzM0NCw0MjcuOTI5NyBRODc3LjczNDQsNDI3LjkyOTcgODc3LjczNDQsNDIzLjgyODEgTDg3NS4xODIzLDQyMy44MjgxIFE4NzUuMTgyMyw0MjMuODI4MSA4NzUuMTgyMyw0MjcuOTI5NyBaIE04NzUuMTgyMyw0MTQuNTMxMyBRODc1LjE4MjMsNDE0LjUzMTMgODc1LjE4MjMsNDE4LjYzMjggTDg3Ny43MzQ0LDQxOC42MzI4IFE4NzcuNzM0NCw0MTguNjMyOCA4NzcuNzM0NCw0MTQuNTMxMyBMODc1LjE4MjMsNDE0LjUzMTMgWiBNODY4Ljk4NDQsNDE1LjUzMzkgTDg3Ni4xODQ5LDQxNS41MzM5IEw4NzYuMTg0OSw0MTIuOTgxOCBMODY4Ljk4NDQsNDEyLjk4MTggTDg2OC45ODQ0LDQxNS41MzM5IFogIiBmaWxsPSIjMDAwMDAwIi8+PHRleHQgZmlsbD0iIzAwMDAwMCIgZm9udC1mYW1pbHk9InNhbnMtc2VyaWYiIGZvbnQtc2l6ZT0iMjAuNDE2NyIgbGVuZ3RoQWRqdXN0PSJzcGFjaW5nIiB0ZXh0TGVuZ3RoPSIxNDIuOTE2NyIgeD0iOTAyLjM0MzgiIHk9IjQyOS4xMDMyIj5BZG1pbmlzdHJhdGV1cjwvdGV4dD48bGluZSBzdHlsZT0ic3Ryb2tlOiMxODE4MTg7c3Ryb2tlLXdpZHRoOjAuNzI5MjsiIHgxPSI3MjMuMzMzMyIgeDI9IjExNzYuODc1IiB5MT0iNDQ0LjA2MjUiIHkyPSI0NDQuMDYyNSIvPjxsaW5lIHN0eWxlPSJzdHJva2U6IzE4MTgxODtzdHJva2Utd2lkdGg6MC43MjkyOyIgeDE9IjcyMy4zMzMzIiB4Mj0iMTE3Ni44NzUiIHkxPSI0NTUuNzI5MiIgeTI9IjQ1NS43MjkyIi8+PHRleHQgZmlsbD0iIzAwMDAwMCIgZm9udC1mYW1pbHk9InNhbnMtc2VyaWYiIGZvbnQtc2l6ZT0iMjAuNDE2NyIgbGVuZ3RoQWRqdXN0PSJzcGFjaW5nIiB0ZXh0TGVuZ3RoPSI0MTguNTQxNyIgeD0iNzMwLjYyNSIgeT0iNDgwLjg2MjYiPitham91dGVySGViZXJnZW1lbnQoaDpIZWJlcmdlbWVudCkgOiB2b2lkPC90ZXh0Pjx0ZXh0IGZpbGw9IiMwMDAwMDAiIGZvbnQtZmFtaWx5PSJzYW5zLXNlcmlmIiBmb250LXNpemU9IjIwLjQxNjciIGxlbmd0aEFkanVzdD0ic3BhY2luZyIgdGV4dExlbmd0aD0iNDM4Ljk1ODMiIHg9IjczMC42MjUiIHk9IjUwMi43MTQ4Ij4rc3VwcHJpbWVySGViZXJnZW1lbnQoaDpIZWJlcmdlbWVudCkgOiB2b2lkPC90ZXh0Pjx0ZXh0IGZpbGw9IiMwMDAwMDAiIGZvbnQtZmFtaWx5PSJzYW5zLXNlcmlmIiBmb250LXNpemU9IjIwLjQxNjciIGxlbmd0aEFkanVzdD0ic3BhY2luZyIgdGV4dExlbmd0aD0iMzA2LjI1IiB4PSI3MzAuNjI1IiB5PSI1MjQuNTY3MSI+K2dlcmVyT2ZmcmVzUmVkdWN0aW9uKCkgOiB2b2lkPC90ZXh0Pjx0ZXh0IGZpbGw9IiMwMDAwMDAiIGZvbnQtZmFtaWx5PSJzYW5zLXNlcmlmIiBmb250LXNpemU9IjIwLjQxNjciIGxlbmd0aEFkanVzdD0ic3BhY2luZyIgdGV4dExlbmd0aD0iMTkzLjk1ODMiIHg9IjczMC42MjUiIHk9IjU0Ni40MTkzIj4rZ2V0Um9sZSgpIDogU3RyaW5nPC90ZXh0PjwvZz48IS0tY2xhc3MgTm91dmVhdUNsaWVudC0tPjxnIGNsYXNzPSJlbnRpdHkiIGRhdGEtZW50aXR5PSJOb3V2ZWF1Q2xpZW50IiBkYXRhLXNvdXJjZS1saW5lPSIzMSIgZGF0YS11aWQ9ImVudDAwMDciIGlkPSJlbnRpdHlfTm91dmVhdUNsaWVudCI+PHJlY3QgZmlsbD0iI0YxRjFGMSIgaGVpZ2h0PSI5MS44NTIyIiByeD0iMy42NDU4IiByeT0iMy42NDU4IiBzdHlsZT0ic3Ryb2tlOiMxODE4MTg7c3Ryb2tlLXdpZHRoOjAuNzI5MjsiIHdpZHRoPSIyMzEuODc1IiB4PSI0OC4xMjUiIHk9IjgzOS4yNzA4Ii8+PGVsbGlwc2UgY3g9IjkzLjYyNSIgY3k9Ijg2Mi42MDQyIiBmaWxsPSIjQUREMUIyIiByeD0iMTYuMDQxNyIgcnk9IjE2LjA0MTciIHN0eWxlPSJzdHJva2U6IzE4MTgxODtzdHJva2Utd2lkdGg6MS40NTgzOyIvPjxwYXRoIGQ9Ik05MC4xNjE1LDg2OC44MDIxIEw5MC4xNjE1LDg3MS4zNTQyIEw5Ny4zNjIsODcxLjM1NDIgTDk3LjM2Miw4NjguODAyMSBMOTAuMTYxNSw4NjguODAyMSBaIE05MS4xNjQxLDg2OS44MDQ3IFE5MS4xNjQxLDg2OS44MDQ3IDkxLjE2NDEsODU2LjQwNjMgTDg4LjYxMiw4NTYuNDA2MyBRODguNjEyLDg1Ni40MDYzIDg4LjYxMiw4NjkuODA0NyBMOTEuMTY0MSw4NjkuODA0NyBaIE05Ni4zNTk0LDg2OS44MDQ3IEw5OC45MTE1LDg2OS44MDQ3IFE5OC45MTE1LDg2OS44MDQ3IDk4LjkxMTUsODY1LjcwMzEgTDk2LjM1OTQsODY1LjcwMzEgUTk2LjM1OTQsODY1LjcwMzEgOTYuMzU5NCw4NjkuODA0NyBaIE05Ni4zNTk0LDg1Ni40MDYzIFE5Ni4zNTk0LDg1Ni40MDYzIDk2LjM1OTQsODYwLjUwNzggTDk4LjkxMTUsODYwLjUwNzggUTk4LjkxMTUsODYwLjUwNzggOTguOTExNSw4NTYuNDA2MyBMOTYuMzU5NCw4NTYuNDA2MyBaIE05MC4xNjE1LDg1Ny40MDg5IEw5Ny4zNjIsODU3LjQwODkgTDk3LjM2Miw4NTQuODU2OCBMOTAuMTYxNSw4NTQuODU2OCBMOTAuMTYxNSw4NTcuNDA4OSBaICIgZmlsbD0iIzAwMDAwMCIvPjx0ZXh0IGZpbGw9IiMwMDAwMDAiIGZvbnQtZmFtaWx5PSJzYW5zLXNlcmlmIiBmb250LXNpemU9IjIwLjQxNjciIGxlbmd0aEFkanVzdD0ic3BhY2luZyIgdGV4dExlbmd0aD0iMTMyLjcwODMiIHg9IjExOS4yOTE3IiB5PSI4NzAuOTc4MiI+Tm91dmVhdUNsaWVudDwvdGV4dD48bGluZSBzdHlsZT0ic3Ryb2tlOiMxODE4MTg7c3Ryb2tlLXdpZHRoOjAuNzI5MjsiIHgxPSI0OS41ODMzIiB4Mj0iMjc4LjU0MTciIHkxPSI4ODUuOTM3NSIgeTI9Ijg4NS45Mzc1Ii8+PGxpbmUgc3R5bGU9InN0cm9rZTojMTgxODE4O3N0cm9rZS13aWR0aDowLjcyOTI7IiB4MT0iNDkuNTgzMyIgeDI9IjI3OC41NDE3IiB5MT0iODk3LjYwNDIiIHkyPSI4OTcuNjA0MiIvPjx0ZXh0IGZpbGw9IiMwMDAwMDAiIGZvbnQtZmFtaWx5PSJzYW5zLXNlcmlmIiBmb250LXNpemU9IjIwLjQxNjciIGxlbmd0aEFkanVzdD0ic3BhY2luZyIgdGV4dExlbmd0aD0iMjE0LjM3NSIgeD0iNTYuODc1IiB5PSI5MjIuNzM3NiI+K3JlZHVjdGlvbigpIDogZG91YmxlPC90ZXh0PjwvZz48IS0tY2xhc3MgQW5jaWVuQ2xpZW50LS0+PGcgY2xhc3M9ImVudGl0eSIgZGF0YS1lbnRpdHk9IkFuY2llbkNsaWVudCIgZGF0YS1zb3VyY2UtbGluZT0iMzUiIGRhdGEtdWlkPSJlbnQwMDA5IiBpZD0iZW50aXR5X0FuY2llbkNsaWVudCI+PHJlY3QgZmlsbD0iI0YxRjFGMSIgaGVpZ2h0PSIxMTMuNzA0NCIgcng9IjMuNjQ1OCIgcnk9IjMuNjQ1OCIgc3R5bGU9InN0cm9rZTojMTgxODE4O3N0cm9rZS13aWR0aDowLjcyOTI7IiB3aWR0aD0iMjMxLjg3NSIgeD0iMzMxLjA0MTciIHk9IjgyOC4zMzMzIi8+PGVsbGlwc2UgY3g9IjM4MS4xMzU0IiBjeT0iODUxLjY2NjciIGZpbGw9IiNBREQxQjIiIHJ4PSIxNi4wNDE3IiByeT0iMTYuMDQxNyIgc3R5bGU9InN0cm9rZTojMTgxODE4O3N0cm9rZS13aWR0aDoxLjQ1ODM7Ii8+PHBhdGggZD0iTTM3Ny42NzE5LDg1Ny44NjQ2IEwzNzcuNjcxOSw4NjAuNDE2NyBMMzg0Ljg3MjQsODYwLjQxNjcgTDM4NC44NzI0LDg1Ny44NjQ2IEwzNzcuNjcxOSw4NTcuODY0NiBaIE0zNzguNjc0NSw4NTguODY3MiBRMzc4LjY3NDUsODU4Ljg2NzIgMzc4LjY3NDUsODQ1LjQ2ODggTDM3Ni4xMjI0LDg0NS40Njg4IFEzNzYuMTIyNCw4NDUuNDY4OCAzNzYuMTIyNCw4NTguODY3MiBMMzc4LjY3NDUsODU4Ljg2NzIgWiBNMzgzLjg2OTgsODU4Ljg2NzIgTDM4Ni40MjE5LDg1OC44NjcyIFEzODYuNDIxOSw4NTguODY3MiAzODYuNDIxOSw4NTQuNzY1NiBMMzgzLjg2OTgsODU0Ljc2NTYgUTM4My44Njk4LDg1NC43NjU2IDM4My44Njk4LDg1OC44NjcyIFogTTM4My44Njk4LDg0NS40Njg4IFEzODMuODY5OCw4NDUuNDY4OCAzODMuODY5OCw4NDkuNTcwMyBMMzg2LjQyMTksODQ5LjU3MDMgUTM4Ni40MjE5LDg0OS41NzAzIDM4Ni40MjE5LDg0NS40Njg4IEwzODMuODY5OCw4NDUuNDY4OCBaIE0zNzcuNjcxOSw4NDYuNDcxNCBMMzg0Ljg3MjQsODQ2LjQ3MTQgTDM4NC44NzI0LDg0My45MTkzIEwzNzcuNjcxOSw4NDMuOTE5MyBMMzc3LjY3MTksODQ2LjQ3MTQgWiAiIGZpbGw9IiMwMDAwMDAiLz48dGV4dCBmaWxsPSIjMDAwMDAwIiBmb250LWZhbWlseT0ic2Fucy1zZXJpZiIgZm9udC1zaXplPSIyMC40MTY3IiBsZW5ndGhBZGp1c3Q9InNwYWNpbmciIHRleHRMZW5ndGg9IjEyMi41IiB4PSI0MDcuODIyOSIgeT0iODYwLjA0MDciPkFuY2llbkNsaWVudDwvdGV4dD48bGluZSBzdHlsZT0ic3Ryb2tlOiMxODE4MTg7c3Ryb2tlLXdpZHRoOjAuNzI5MjsiIHgxPSIzMzIuNSIgeDI9IjU2MS40NTgzIiB5MT0iODc1IiB5Mj0iODc1Ii8+PHRleHQgZmlsbD0iIzAwMDAwMCIgZm9udC1mYW1pbHk9InNhbnMtc2VyaWYiIGZvbnQtc2l6ZT0iMjAuNDE2NyIgbGVuZ3RoQWRqdXN0PSJzcGFjaW5nIiB0ZXh0TGVuZ3RoPSIyMTQuMzc1IiB4PSIzMzkuNzkxNyIgeT0iOTAwLjEzMzUiPi1uYlJlc2VydmF0aW9ucyA6IGludDwvdGV4dD48bGluZSBzdHlsZT0ic3Ryb2tlOiMxODE4MTg7c3Ryb2tlLXdpZHRoOjAuNzI5MjsiIHgxPSIzMzIuNSIgeDI9IjU2MS40NTgzIiB5MT0iOTA4LjUxODkiIHkyPSI5MDguNTE4OSIvPjx0ZXh0IGZpbGw9IiMwMDAwMDAiIGZvbnQtZmFtaWx5PSJzYW5zLXNlcmlmIiBmb250LXNpemU9IjIwLjQxNjciIGxlbmd0aEFkanVzdD0ic3BhY2luZyIgdGV4dExlbmd0aD0iMjE0LjM3NSIgeD0iMzM5Ljc5MTciIHk9IjkzMy42NTIzIj4rcmVkdWN0aW9uKCkgOiBkb3VibGU8L3RleHQ+PC9nPjwhLS1jbGFzcyBSZXNlcnZhYmxlLS0+PGcgY2xhc3M9ImVudGl0eSIgZGF0YS1lbnRpdHk9IlJlc2VydmFibGUiIGRhdGEtc291cmNlLWxpbmU9IjQxIiBkYXRhLXVpZD0iZW50MDAxMSIgaWQ9ImVudGl0eV9SZXNlcnZhYmxlIj48cmVjdCBmaWxsPSIjRjFGMUYxIiBoZWlnaHQ9IjIwMS4xMTMzIiByeD0iMy42NDU4IiByeT0iMy42NDU4IiBzdHlsZT0ic3Ryb2tlOiMxODE4MTg7c3Ryb2tlLXdpZHRoOjAuNzI5MjsiIHdpZHRoPSI0NzYuODc1IiB4PSI4NDcuMjkxNyIgeT0iMjEuMTQ1OCIvPjxlbGxpcHNlIGN4PSIxMDI4LjQ4OTYiIGN5PSI0NC40NzkyIiBmaWxsPSIjQjRBN0U1IiByeD0iMTYuMDQxNyIgcnk9IjE2LjA0MTciIHN0eWxlPSJzdHJva2U6IzE4MTgxODtzdHJva2Utd2lkdGg6MS40NTgzOyIvPjxwYXRoIGQ9Ik0xMDMzLjA0NjksNTMuMjI5MiBMMTAzMy4wNDY5LDUwLjY3NzEgTDEwMjkuOTQ3OSw1MC42NzcxIFExMDI5Ljk0NzksNTAuNjc3MSAxMDI5Ljk0NzksMzkuMjgzOSBMMTAzMy4wNDY5LDM5LjI4MzkgTDEwMzMuMDQ2OSwzNi43MzE4IEwxMDI0LjI5NjksMzYuNzMxOCBMMTAyNC4yOTY5LDM5LjI4MzkgTDEwMjcuMzk1OCwzOS4yODM5IFExMDI3LjM5NTgsMzkuMjgzOSAxMDI3LjM5NTgsNTAuNjc3MSBMMTAyNC4yOTY5LDUwLjY3NzEgTDEwMjQuMjk2OSw1My4yMjkyIEwxMDMzLjA0NjksNTMuMjI5MiBaICIgZmlsbD0iIzAwMDAwMCIvPjx0ZXh0IGZpbGw9IiMwMDAwMDAiIGZvbnQtZmFtaWx5PSJzYW5zLXNlcmlmIiBmb250LXNpemU9IjIwLjQxNjciIGZvbnQtc3R5bGU9Iml0YWxpYyIgbGVuZ3RoQWRqdXN0PSJzcGFjaW5nIiB0ZXh0TGVuZ3RoPSIxMDIuMDgzMyIgeD0iMTA1OC4zODU0IiB5PSI1Mi44NTMyIj5SZXNlcnZhYmxlPC90ZXh0PjxsaW5lIHN0eWxlPSJzdHJva2U6IzE4MTgxODtzdHJva2Utd2lkdGg6MC43MjkyOyIgeDE9Ijg0OC43NSIgeDI9IjEzMjIuNzA4MyIgeTE9IjY3LjgxMjUiIHkyPSI2Ny44MTI1Ii8+PGxpbmUgc3R5bGU9InN0cm9rZTojMTgxODE4O3N0cm9rZS13aWR0aDowLjcyOTI7IiB4MT0iODQ4Ljc1IiB4Mj0iMTMyMi43MDgzIiB5MT0iNzkuNDc5MiIgeTI9Ijc5LjQ3OTIiLz48dGV4dCBmaWxsPSIjMDAwMDAwIiBmb250LWZhbWlseT0ic2Fucy1zZXJpZiIgZm9udC1zaXplPSIyMC40MTY3IiBsZW5ndGhBZGp1c3Q9InNwYWNpbmciIHRleHRMZW5ndGg9IjM1Ny4yOTE3IiB4PSI4NTYuMDQxNyIgeT0iMTA0LjYxMjYiPitlc3REaXNwb25pYmxlKHA6UGVyaW9kZSkgOiBib29sZWFuPC90ZXh0Pjx0ZXh0IGZpbGw9IiMwMDAwMDAiIGZvbnQtZmFtaWx5PSJzYW5zLXNlcmlmIiBmb250LXNpemU9IjIwLjQxNjciIGxlbmd0aEFkanVzdD0ic3BhY2luZyIgdGV4dExlbmd0aD0iNDU5LjM3NSIgeD0iODU2LjA0MTciIHk9IjEyNi40NjQ4Ij4rY2FsY3VsZXJQcml4KHA6UGVyaW9kZSwgbmJQZXJzOmludCkgOiBkb3VibGU8L3RleHQ+PHRleHQgZmlsbD0iIzAwMDAwMCIgZm9udC1mYW1pbHk9InNhbnMtc2VyaWYiIGZvbnQtc2l6ZT0iMjAuNDE2NyIgbGVuZ3RoQWRqdXN0PSJzcGFjaW5nIiB0ZXh0TGVuZ3RoPSI0NDkuMTY2NyIgeD0iODU2LjA0MTciIHk9IjE0OC4zMTcxIj4rcmVzZXJ2ZXIocDpQZXJpb2RlLCBjOkNsaWVudCkgOiBSZXNlcnZhdGlvbjwvdGV4dD48dGV4dCBmaWxsPSIjMDAwMDAwIiBmb250LWZhbWlseT0ic2Fucy1zZXJpZiIgZm9udC1zaXplPSIyMC40MTY3IiBsZW5ndGhBZGp1c3Q9InNwYWNpbmciIHRleHRMZW5ndGg9IjQxOC41NDE3IiB4PSI4NTYuMDQxNyIgeT0iMTcwLjE2OTMiPithbm51bGVyUmVzZXJ2YXRpb24ocjpSZXNlcnZhdGlvbikgOiB2b2lkPC90ZXh0Pjx0ZXh0IGZpbGw9IiMwMDAwMDAiIGZvbnQtZmFtaWx5PSJzYW5zLXNlcmlmIiBmb250LXNpemU9IjIwLjQxNjciIGxlbmd0aEFkanVzdD0ic3BhY2luZyIgdGV4dExlbmd0aD0iMzg3LjkxNjciIHg9Ijg1Ni4wNDE3IiB5PSIxOTIuMDIxNSI+K2VzdFJlc2VydmVlKGRhdGU6TG9jYWxEYXRlKSA6IGJvb2xlYW48L3RleHQ+PHRleHQgZmlsbD0iIzAwMDAwMCIgZm9udC1mYW1pbHk9InNhbnMtc2VyaWYiIGZvbnQtc2l6ZT0iMjAuNDE2NyIgbGVuZ3RoQWRqdXN0PSJzcGFjaW5nIiB0ZXh0TGVuZ3RoPSIyNzUuNjI1IiB4PSI4NTYuMDQxNyIgeT0iMjEzLjg3MzciPithZmZpY2hlckRldGFpbHMoKSA6IFN0cmluZzwvdGV4dD48L2c+PCEtLWNsYXNzIEhlYmVyZ2VtZW50LS0+PGcgY2xhc3M9ImVudGl0eSIgZGF0YS1lbnRpdHk9IkhlYmVyZ2VtZW50IiBkYXRhLXNvdXJjZS1saW5lPSI1MCIgZGF0YS11aWQ9ImVudDAwMTIiIGlkPSJlbnRpdHlfSGViZXJnZW1lbnQiPjxyZWN0IGZpbGw9IiNGMUYxRjEiIGhlaWdodD0iMjY2LjY2OTkiIHJ4PSIzLjY0NTgiIHJ5PSIzLjY0NTgiIHN0eWxlPSJzdHJva2U6IzE4MTgxODtzdHJva2Utd2lkdGg6MC43MjkyOyIgd2lkdGg9IjMzMy45NTgzIiB4PSIxMjI5LjM3NSIgeT0iMzQyLjcwODMiLz48ZWxsaXBzZSBjeD0iMTMzNC4wMTA0IiBjeT0iMzY2LjA0MTciIGZpbGw9IiNBOURDREYiIHJ4PSIxNi4wNDE3IiByeT0iMTYuMDQxNyIgc3R5bGU9InN0cm9rZTojMTgxODE4O3N0cm9rZS13aWR0aDoxLjQ1ODM7Ii8+PHBhdGggZD0iTTEzMjguOTk3NCwzNjIuNTc4MSBMMTMyOC45OTc0LDM3NC40MjcxIEwxMzMxLjU0OTUsMzc0LjQyNzEgUTEzMzEuNTQ5NSwzNzQuNDI3MSAxMzMxLjU0OTUsMzY4LjIyOTIgTDEzMzYuNzQ0OCwzNjguMjI5MiBRMTMzNi43NDQ4LDM2OC4yMjkyIDEzMzYuNzQ0OCwzNzQuNDI3MSBMMTMzOS4yOTY5LDM3NC40MjcxIEwxMzM5LjI5NjksMzYyLjU3ODEgTDEzMzYuNzQ0OCwzNjIuNTc4MSBRMTMzNi43NDQ4LDM2Mi41NzgxIDEzMzYuNzQ0OCwzNjUuNjc3MSBMMTMzMS41NDk1LDM2NS42NzcxIFExMzMxLjU0OTUsMzY1LjY3NzEgMTMzMS41NDk1LDM2Mi41NzgxIEwxMzI4Ljk5NzQsMzYyLjU3ODEgWiBNMTMzMC41NDY5LDM2My41ODA3IEwxMzMzLjA5OSwzNjMuNTgwNyBRMTMzMy4wOTksMzYzLjU4MDcgMTMzMy4wOTksMzU5LjQ3OTIgTDEzMzAuNTQ2OSwzNTkuNDc5MiBRMTMzMC41NDY5LDM1OS40NzkyIDEzMzAuNTQ2OSwzNjMuNTgwNyBaIE0xMzM3Ljc0NzQsMzYzLjU4MDcgUTEzMzcuNzQ3NCwzNjMuNTgwNyAxMzM3Ljc0NzQsMzU5LjQ3OTIgTDEzMzUuMTk1MywzNTkuNDc5MiBRMTMzNS4xOTUzLDM1OS40NzkyIDEzMzUuMTk1MywzNjMuNTgwNyBMMTMzNy43NDc0LDM2My41ODA3IFogTTEzMzIuMDk2NCwzNjAuNDgxOCBMMTMzNi4xOTc5LDM2MC40ODE4IEwxMzM2LjE5NzksMzU3LjkyOTcgTDEzMzIuMDk2NCwzNTcuOTI5NyBMMTMzMi4wOTY0LDM2MC40ODE4IFogIiBmaWxsPSIjMDAwMDAwIi8+PHRleHQgZmlsbD0iIzAwMDAwMCIgZm9udC1mYW1pbHk9InNhbnMtc2VyaWYiIGZvbnQtc2l6ZT0iMjAuNDE2NyIgZm9udC1zdHlsZT0iaXRhbGljIiBsZW5ndGhBZGp1c3Q9InNwYWNpbmciIHRleHRMZW5ndGg9IjExMi4yOTE3IiB4PSIxMzYzLjkwNjMiIHk9IjM3NC40MTU3Ij5IZWJlcmdlbWVudDwvdGV4dD48bGluZSBzdHlsZT0ic3Ryb2tlOiMxODE4MTg7c3Ryb2tlLXdpZHRoOjAuNzI5MjsiIHgxPSIxMjMwLjgzMzMiIHgyPSIxNTYxLjg3NSIgeTE9IjM4OS4zNzUiIHkyPSIzODkuMzc1Ii8+PHRleHQgZmlsbD0iIzAwMDAwMCIgZm9udC1mYW1pbHk9InNhbnMtc2VyaWYiIGZvbnQtc2l6ZT0iMjAuNDE2NyIgbGVuZ3RoQWRqdXN0PSJzcGFjaW5nIiB0ZXh0TGVuZ3RoPSIxMjIuNSIgeD0iMTIzOC4xMjUiIHk9IjQxNC41MDg1Ij4taWQgOiBTdHJpbmc8L3RleHQ+PHRleHQgZmlsbD0iIzAwMDAwMCIgZm9udC1mYW1pbHk9InNhbnMtc2VyaWYiIGZvbnQtc2l6ZT0iMjAuNDE2NyIgbGVuZ3RoQWRqdXN0PSJzcGFjaW5nIiB0ZXh0TGVuZ3RoPSIxMzIuNzA4MyIgeD0iMTIzOC4xMjUiIHk9IjQzNi4zNjA3Ij4tbm9tIDogU3RyaW5nPC90ZXh0Pjx0ZXh0IGZpbGw9IiMwMDAwMDAiIGZvbnQtZmFtaWx5PSJzYW5zLXNlcmlmIiBmb250LXNpemU9IjIwLjQxNjciIGxlbmd0aEFkanVzdD0ic3BhY2luZyIgdGV4dExlbmd0aD0iMTczLjU0MTciIHg9IjEyMzguMTI1IiB5PSI0NTguMjEyOSI+LWFkcmVzc2UgOiBTdHJpbmc8L3RleHQ+PHRleHQgZmlsbD0iIzAwMDAwMCIgZm9udC1mYW1pbHk9InNhbnMtc2VyaWYiIGZvbnQtc2l6ZT0iMjAuNDE2NyIgbGVuZ3RoQWRqdXN0PSJzcGFjaW5nIiB0ZXh0TGVuZ3RoPSIxNDIuOTE2NyIgeD0iMTIzOC4xMjUiIHk9IjQ4MC4wNjUxIj4tdHlwZSA6IFN0cmluZzwvdGV4dD48dGV4dCBmaWxsPSIjMDAwMDAwIiBmb250LWZhbWlseT0ic2Fucy1zZXJpZiIgZm9udC1zaXplPSIyMC40MTY3IiBsZW5ndGhBZGp1c3Q9InNwYWNpbmciIHRleHRMZW5ndGg9IjE1My4xMjUiIHg9IjEyMzguMTI1IiB5PSI1MDEuOTE3MyI+LWNhcGFjaXRlIDogaW50PC90ZXh0Pjx0ZXh0IGZpbGw9IiMwMDAwMDAiIGZvbnQtZmFtaWx5PSJzYW5zLXNlcmlmIiBmb250LXNpemU9IjIwLjQxNjciIGxlbmd0aEFkanVzdD0ic3BhY2luZyIgdGV4dExlbmd0aD0iMTgzLjc1IiB4PSIxMjM4LjEyNSIgeT0iNTIzLjc2OTUiPi1wcml4TnVpdCA6IGRvdWJsZTwvdGV4dD48dGV4dCBmaWxsPSIjMDAwMDAwIiBmb250LWZhbWlseT0ic2Fucy1zZXJpZiIgZm9udC1zaXplPSIyMC40MTY3IiBsZW5ndGhBZGp1c3Q9InNwYWNpbmciIHRleHRMZW5ndGg9IjMxNi40NTgzIiB4PSIxMjM4LjEyNSIgeT0iNTQ1LjYyMTciPi1kaXNwb25pYmlsaXRlcyA6IExpc3QmbHQ7UGVyaW9kZSZndDs8L3RleHQ+PHRleHQgZmlsbD0iIzAwMDAwMCIgZm9udC1mYW1pbHk9InNhbnMtc2VyaWYiIGZvbnQtc2l6ZT0iMjAuNDE2NyIgbGVuZ3RoQWRqdXN0PSJzcGFjaW5nIiB0ZXh0TGVuZ3RoPSIxODMuNzUiIHg9IjEyMzguMTI1IiB5PSI1NjcuNDc0Ij4tbm90ZXMgOiBMaXN0Jmx0O2ludCZndDs8L3RleHQ+PGxpbmUgc3R5bGU9InN0cm9rZTojMTgxODE4O3N0cm9rZS13aWR0aDowLjcyOTI7IiB4MT0iMTIzMC44MzMzIiB4Mj0iMTU2MS44NzUiIHkxPSI1NzUuODU5NCIgeTI9IjU3NS44NTk0Ii8+PHRleHQgZmlsbD0iIzAwMDAwMCIgZm9udC1mYW1pbHk9InNhbnMtc2VyaWYiIGZvbnQtc2l6ZT0iMjAuNDE2NyIgbGVuZ3RoQWRqdXN0PSJzcGFjaW5nIiB0ZXh0TGVuZ3RoPSIzMTYuNDU4MyIgeD0iMTIzOC4xMjUiIHk9IjYwMC45OTI4Ij4rY29tcGFyZVRvKGg6SGViZXJnZW1lbnQpIDogaW50PC90ZXh0PjwvZz48IS0tY2xhc3MgQ29tcGFyYWJsZS0tPjxnIGNsYXNzPSJlbnRpdHkiIGRhdGEtZW50aXR5PSJDb21wYXJhYmxlIiBkYXRhLXNvdXJjZS1saW5lPSI1MSIgZGF0YS11aWQ9ImVudDAwMTQiIGlkPSJlbnRpdHlfQ29tcGFyYWJsZSI+PHJlY3QgZmlsbD0iI0YxRjFGMSIgaGVpZ2h0PSI3MCIgcng9IjMuNjQ1OCIgcnk9IjMuNjQ1OCIgc3R5bGU9InN0cm9rZTojMTgxODE4O3N0cm9rZS13aWR0aDowLjcyOTI7IiB3aWR0aD0iMTQ4Ljc1IiB4PSIxMzc0LjQ3OTIiIHk9Ijg2Ljc3MDgiLz48ZWxsaXBzZSBjeD0iMTM5Ni4zNTQyIiBjeT0iMTEwLjEwNDIiIGZpbGw9IiNCNEE3RTUiIHJ4PSIxNi4wNDE3IiByeT0iMTYuMDQxNyIgc3R5bGU9InN0cm9rZTojMTgxODE4O3N0cm9rZS13aWR0aDoxLjQ1ODM7Ii8+PHBhdGggZD0iTTE0MDAuOTExNSwxMTguODU0MiBMMTQwMC45MTE1LDExNi4zMDIxIEwxMzk3LjgxMjUsMTE2LjMwMjEgUTEzOTcuODEyNSwxMTYuMzAyMSAxMzk3LjgxMjUsMTA0LjkwODkgTDE0MDAuOTExNSwxMDQuOTA4OSBMMTQwMC45MTE1LDEwMi4zNTY4IEwxMzkyLjE2MTUsMTAyLjM1NjggTDEzOTIuMTYxNSwxMDQuOTA4OSBMMTM5NS4yNjA0LDEwNC45MDg5IFExMzk1LjI2MDQsMTA0LjkwODkgMTM5NS4yNjA0LDExNi4zMDIxIEwxMzkyLjE2MTUsMTE2LjMwMjEgTDEzOTIuMTYxNSwxMTguODU0MiBMMTQwMC45MTE1LDExOC44NTQyIFogIiBmaWxsPSIjMDAwMDAwIi8+PHRleHQgZmlsbD0iIzAwMDAwMCIgZm9udC1mYW1pbHk9InNhbnMtc2VyaWYiIGZvbnQtc2l6ZT0iMjAuNDE2NyIgZm9udC1zdHlsZT0iaXRhbGljIiBsZW5ndGhBZGp1c3Q9InNwYWNpbmciIHRleHRMZW5ndGg9IjEwMi4wODMzIiB4PSIxNDE2Ljc3MDgiIHk9IjExOC40NzgyIj5Db21wYXJhYmxlPC90ZXh0PjxsaW5lIHN0eWxlPSJzdHJva2U6IzE4MTgxODtzdHJva2Utd2lkdGg6MC43MjkyOyIgeDE9IjEzNzUuOTM3NSIgeDI9IjE1MjEuNzcwOCIgeTE9IjEzMy40Mzc1IiB5Mj0iMTMzLjQzNzUiLz48bGluZSBzdHlsZT0ic3Ryb2tlOiMxODE4MTg7c3Ryb2tlLXdpZHRoOjAuNzI5MjsiIHgxPSIxMzc1LjkzNzUiIHgyPSIxNTIxLjc3MDgiIHkxPSIxNDUuMTA0MiIgeTI9IjE0NS4xMDQyIi8+PC9nPjwhLS1jbGFzcyBDaGFtYnJlSG90ZWwtLT48ZyBjbGFzcz0iZW50aXR5IiBkYXRhLWVudGl0eT0iQ2hhbWJyZUhvdGVsIiBkYXRhLXNvdXJjZS1saW5lPSI2MiIgZGF0YS11aWQ9ImVudDAwMTYiIGlkPSJlbnRpdHlfQ2hhbWJyZUhvdGVsIj48cmVjdCBmaWxsPSIjRjFGMUYxIiBoZWlnaHQ9IjcwIiByeD0iMy42NDU4IiByeT0iMy42NDU4IiBzdHlsZT0ic3Ryb2tlOiMxODE4MTg7c3Ryb2tlLXdpZHRoOjAuNzI5MjsiIHdpZHRoPSIxNjkuMTY2NyIgeD0iMTA5NS45Mzc1IiB5PSI4NTAuMjA4MyIvPjxlbGxpcHNlIGN4PSIxMTE3LjgxMjUiIGN5PSI4NzMuNTQxNyIgZmlsbD0iI0FERDFCMiIgcng9IjE2LjA0MTciIHJ5PSIxNi4wNDE3IiBzdHlsZT0ic3Ryb2tlOiMxODE4MTg7c3Ryb2tlLXdpZHRoOjEuNDU4MzsiLz48cGF0aCBkPSJNMTExNC4zNDksODc5LjczOTYgTDExMTQuMzQ5LDg4Mi4yOTE3IEwxMTIxLjU0OTUsODgyLjI5MTcgTDExMjEuNTQ5NSw4NzkuNzM5NiBMMTExNC4zNDksODc5LjczOTYgWiBNMTExNS4zNTE2LDg4MC43NDIyIFExMTE1LjM1MTYsODgwLjc0MjIgMTExNS4zNTE2LDg2Ny4zNDM4IEwxMTEyLjc5OTUsODY3LjM0MzggUTExMTIuNzk5NSw4NjcuMzQzOCAxMTEyLjc5OTUsODgwLjc0MjIgTDExMTUuMzUxNiw4ODAuNzQyMiBaIE0xMTIwLjU0NjksODgwLjc0MjIgTDExMjMuMDk5LDg4MC43NDIyIFExMTIzLjA5OSw4ODAuNzQyMiAxMTIzLjA5OSw4NzYuNjQwNiBMMTEyMC41NDY5LDg3Ni42NDA2IFExMTIwLjU0NjksODc2LjY0MDYgMTEyMC41NDY5LDg4MC43NDIyIFogTTExMjAuNTQ2OSw4NjcuMzQzOCBRMTEyMC41NDY5LDg2Ny4zNDM4IDExMjAuNTQ2OSw4NzEuNDQ1MyBMMTEyMy4wOTksODcxLjQ0NTMgUTExMjMuMDk5LDg3MS40NDUzIDExMjMuMDk5LDg2Ny4zNDM4IEwxMTIwLjU0NjksODY3LjM0MzggWiBNMTExNC4zNDksODY4LjM0NjQgTDExMjEuNTQ5NSw4NjguMzQ2NCBMMTEyMS41NDk1LDg2NS43OTQzIEwxMTE0LjM0OSw4NjUuNzk0MyBMMTExNC4zNDksODY4LjM0NjQgWiAiIGZpbGw9IiMwMDAwMDAiLz48dGV4dCBmaWxsPSIjMDAwMDAwIiBmb250LWZhbWlseT0ic2Fucy1zZXJpZiIgZm9udC1zaXplPSIyMC40MTY3IiBsZW5ndGhBZGp1c3Q9InNwYWNpbmciIHRleHRMZW5ndGg9IjEyMi41IiB4PSIxMTM4LjIyOTIiIHk9Ijg4MS45MTU3Ij5DaGFtYnJlSG90ZWw8L3RleHQ+PGxpbmUgc3R5bGU9InN0cm9rZTojMTgxODE4O3N0cm9rZS13aWR0aDowLjcyOTI7IiB4MT0iMTA5Ny4zOTU4IiB4Mj0iMTI2My42NDU4IiB5MT0iODk2Ljg3NSIgeTI9Ijg5Ni44NzUiLz48bGluZSBzdHlsZT0ic3Ryb2tlOiMxODE4MTg7c3Ryb2tlLXdpZHRoOjAuNzI5MjsiIHgxPSIxMDk3LjM5NTgiIHgyPSIxMjYzLjY0NTgiIHkxPSI5MDguNTQxNyIgeTI9IjkwOC41NDE3Ii8+PC9nPjwhLS1jbGFzcyBBcHBhcnRlbWVudC0tPjxnIGNsYXNzPSJlbnRpdHkiIGRhdGEtZW50aXR5PSJBcHBhcnRlbWVudCIgZGF0YS1zb3VyY2UtbGluZT0iNjMiIGRhdGEtdWlkPSJlbnQwMDE4IiBpZD0iZW50aXR5X0FwcGFydGVtZW50Ij48cmVjdCBmaWxsPSIjRjFGMUYxIiBoZWlnaHQ9IjcwIiByeD0iMy42NDU4IiByeT0iMy42NDU4IiBzdHlsZT0ic3Ryb2tlOiMxODE4MTg7c3Ryb2tlLXdpZHRoOjAuNzI5MjsiIHdpZHRoPSIxNTguOTU4MyIgeD0iMTMxNi44NzUiIHk9Ijg1MC4yMDgzIi8+PGVsbGlwc2UgY3g9IjEzMzguNzUiIGN5PSI4NzMuNTQxNyIgZmlsbD0iI0FERDFCMiIgcng9IjE2LjA0MTciIHJ5PSIxNi4wNDE3IiBzdHlsZT0ic3Ryb2tlOiMxODE4MTg7c3Ryb2tlLXdpZHRoOjEuNDU4MzsiLz48cGF0aCBkPSJNMTMzNS4yODY1LDg3OS43Mzk2IEwxMzM1LjI4NjUsODgyLjI5MTcgTDEzNDIuNDg3LDg4Mi4yOTE3IEwxMzQyLjQ4Nyw4NzkuNzM5NiBMMTMzNS4yODY1LDg3OS43Mzk2IFogTTEzMzYuMjg5MSw4ODAuNzQyMiBRMTMzNi4yODkxLDg4MC43NDIyIDEzMzYuMjg5MSw4NjcuMzQzOCBMMTMzMy43MzcsODY3LjM0MzggUTEzMzMuNzM3LDg2Ny4zNDM4IDEzMzMuNzM3LDg4MC43NDIyIEwxMzM2LjI4OTEsODgwLjc0MjIgWiBNMTM0MS40ODQ0LDg4MC43NDIyIEwxMzQ0LjAzNjUsODgwLjc0MjIgUTEzNDQuMDM2NSw4ODAuNzQyMiAxMzQ0LjAzNjUsODc2LjY0MDYgTDEzNDEuNDg0NCw4NzYuNjQwNiBRMTM0MS40ODQ0LDg3Ni42NDA2IDEzNDEuNDg0NCw4ODAuNzQyMiBaIE0xMzQxLjQ4NDQsODY3LjM0MzggUTEzNDEuNDg0NCw4NjcuMzQzOCAxMzQxLjQ4NDQsODcxLjQ0NTMgTDEzNDQuMDM2NSw4NzEuNDQ1MyBRMTM0NC4wMzY1LDg3MS40NDUzIDEzNDQuMDM2NSw4NjcuMzQzOCBMMTM0MS40ODQ0LDg2Ny4zNDM4IFogTTEzMzUuMjg2NSw4NjguMzQ2NCBMMTM0Mi40ODcsODY4LjM0NjQgTDEzNDIuNDg3LDg2NS43OTQzIEwxMzM1LjI4NjUsODY1Ljc5NDMgTDEzMzUuMjg2NSw4NjguMzQ2NCBaICIgZmlsbD0iIzAwMDAwMCIvPjx0ZXh0IGZpbGw9IiMwMDAwMDAiIGZvbnQtZmFtaWx5PSJzYW5zLXNlcmlmIiBmb250LXNpemU9IjIwLjQxNjciIGxlbmd0aEFkanVzdD0ic3BhY2luZyIgdGV4dExlbmd0aD0iMTEyLjI5MTciIHg9IjEzNTkuMTY2NyIgeT0iODgxLjkxNTciPkFwcGFydGVtZW50PC90ZXh0PjxsaW5lIHN0eWxlPSJzdHJva2U6IzE4MTgxODtzdHJva2Utd2lkdGg6MC43MjkyOyIgeDE9IjEzMTguMzMzMyIgeDI9IjE0NzQuMzc1IiB5MT0iODk2Ljg3NSIgeTI9Ijg5Ni44NzUiLz48bGluZSBzdHlsZT0ic3Ryb2tlOiMxODE4MTg7c3Ryb2tlLXdpZHRoOjAuNzI5MjsiIHgxPSIxMzE4LjMzMzMiIHgyPSIxNDc0LjM3NSIgeTE9IjkwOC41NDE3IiB5Mj0iOTA4LjU0MTciLz48L2c+PCEtLWNsYXNzIFZpbGxhLS0+PGcgY2xhc3M9ImVudGl0eSIgZGF0YS1lbnRpdHk9IlZpbGxhIiBkYXRhLXNvdXJjZS1saW5lPSI2NCIgZGF0YS11aWQ9ImVudDAwMjAiIGlkPSJlbnRpdHlfVmlsbGEiPjxyZWN0IGZpbGw9IiNGMUYxRjEiIGhlaWdodD0iNzAiIHJ4PSIzLjY0NTgiIHJ5PSIzLjY0NTgiIHN0eWxlPSJzdHJva2U6IzE4MTgxODtzdHJva2Utd2lkdGg6MC43MjkyOyIgd2lkdGg9Ijk3LjcwODMiIHg9IjE1MjYuODc1IiB5PSI4NTAuMjA4MyIvPjxlbGxpcHNlIGN4PSIxNTQ4Ljc1IiBjeT0iODczLjU0MTciIGZpbGw9IiNBREQxQjIiIHJ4PSIxNi4wNDE3IiByeT0iMTYuMDQxNyIgc3R5bGU9InN0cm9rZTojMTgxODE4O3N0cm9rZS13aWR0aDoxLjQ1ODM7Ii8+PHBhdGggZD0iTTE1NDUuMjg2NSw4NzkuNzM5NiBMMTU0NS4yODY1LDg4Mi4yOTE3IEwxNTUyLjQ4Nyw4ODIuMjkxNyBMMTU1Mi40ODcsODc5LjczOTYgTDE1NDUuMjg2NSw4NzkuNzM5NiBaIE0xNTQ2LjI4OTEsODgwLjc0MjIgUTE1NDYuMjg5MSw4ODAuNzQyMiAxNTQ2LjI4OTEsODY3LjM0MzggTDE1NDMuNzM3LDg2Ny4zNDM4IFExNTQzLjczNyw4NjcuMzQzOCAxNTQzLjczNyw4ODAuNzQyMiBMMTU0Ni4yODkxLDg4MC43NDIyIFogTTE1NTEuNDg0NCw4ODAuNzQyMiBMMTU1NC4wMzY1LDg4MC43NDIyIFExNTU0LjAzNjUsODgwLjc0MjIgMTU1NC4wMzY1LDg3Ni42NDA2IEwxNTUxLjQ4NDQsODc2LjY0MDYgUTE1NTEuNDg0NCw4NzYuNjQwNiAxNTUxLjQ4NDQsODgwLjc0MjIgWiBNMTU1MS40ODQ0LDg2Ny4zNDM4IFExNTUxLjQ4NDQsODY3LjM0MzggMTU1MS40ODQ0LDg3MS40NDUzIEwxNTU0LjAzNjUsODcxLjQ0NTMgUTE1NTQuMDM2NSw4NzEuNDQ1MyAxNTU0LjAzNjUsODY3LjM0MzggTDE1NTEuNDg0NCw4NjcuMzQzOCBaIE0xNTQ1LjI4NjUsODY4LjM0NjQgTDE1NTIuNDg3LDg2OC4zNDY0IEwxNTUyLjQ4Nyw4NjUuNzk0MyBMMTU0NS4yODY1LDg2NS43OTQzIEwxNTQ1LjI4NjUsODY4LjM0NjQgWiAiIGZpbGw9IiMwMDAwMDAiLz48dGV4dCBmaWxsPSIjMDAwMDAwIiBmb250LWZhbWlseT0ic2Fucy1zZXJpZiIgZm9udC1zaXplPSIyMC40MTY3IiBsZW5ndGhBZGp1c3Q9InNwYWNpbmciIHRleHRMZW5ndGg9IjUxLjA0MTciIHg9IjE1NjkuMTY2NyIgeT0iODgxLjkxNTciPlZpbGxhPC90ZXh0PjxsaW5lIHN0eWxlPSJzdHJva2U6IzE4MTgxODtzdHJva2Utd2lkdGg6MC43MjkyOyIgeDE9IjE1MjguMzMzMyIgeDI9IjE2MjMuMTI1IiB5MT0iODk2Ljg3NSIgeTI9Ijg5Ni44NzUiLz48bGluZSBzdHlsZT0ic3Ryb2tlOiMxODE4MTg7c3Ryb2tlLXdpZHRoOjAuNzI5MjsiIHgxPSIxNTI4LjMzMzMiIHgyPSIxNjIzLjEyNSIgeTE9IjkwOC41NDE3IiB5Mj0iOTA4LjU0MTciLz48L2c+PCEtLWNsYXNzIFJlc2VydmF0aW9uLS0+PGcgY2xhc3M9ImVudGl0eSIgZGF0YS1lbnRpdHk9IlJlc2VydmF0aW9uIiBkYXRhLXNvdXJjZS1saW5lPSI2NyIgZGF0YS11aWQ9ImVudDAwMjIiIGlkPSJlbnRpdHlfUmVzZXJ2YXRpb24iPjxyZWN0IGZpbGw9IiNGMUYxRjEiIGhlaWdodD0iMzMyLjIyNjYiIHJ4PSIzLjY0NTgiIHJ5PSIzLjY0NTgiIHN0eWxlPSJzdHJva2U6IzE4MTgxODtzdHJva2Utd2lkdGg6MC43MjkyOyIgd2lkdGg9IjQwNS40MTY3IiB4PSI2MzkuNDc5MiIgeT0iNzE4Ljk1ODMiLz48ZWxsaXBzZSBjeD0iNzc5Ljg0MzgiIGN5PSI3NDIuMjkxNyIgZmlsbD0iI0FERDFCMiIgcng9IjE2LjA0MTciIHJ5PSIxNi4wNDE3IiBzdHlsZT0ic3Ryb2tlOiMxODE4MTg7c3Ryb2tlLXdpZHRoOjEuNDU4MzsiLz48cGF0aCBkPSJNNzc2LjM4MDIsNzQ4LjQ4OTYgTDc3Ni4zODAyLDc1MS4wNDE3IEw3ODMuNTgwNyw3NTEuMDQxNyBMNzgzLjU4MDcsNzQ4LjQ4OTYgTDc3Ni4zODAyLDc0OC40ODk2IFogTTc3Ny4zODI4LDc0OS40OTIyIFE3NzcuMzgyOCw3NDkuNDkyMiA3NzcuMzgyOCw3MzYuMDkzOCBMNzc0LjgzMDcsNzM2LjA5MzggUTc3NC44MzA3LDczNi4wOTM4IDc3NC44MzA3LDc0OS40OTIyIEw3NzcuMzgyOCw3NDkuNDkyMiBaIE03ODIuNTc4MSw3NDkuNDkyMiBMNzg1LjEzMDIsNzQ5LjQ5MjIgUTc4NS4xMzAyLDc0OS40OTIyIDc4NS4xMzAyLDc0NS4zOTA2IEw3ODIuNTc4MSw3NDUuMzkwNiBRNzgyLjU3ODEsNzQ1LjM5MDYgNzgyLjU3ODEsNzQ5LjQ5MjIgWiBNNzgyLjU3ODEsNzM2LjA5MzggUTc4Mi41NzgxLDczNi4wOTM4IDc4Mi41NzgxLDc0MC4xOTUzIEw3ODUuMTMwMiw3NDAuMTk1MyBRNzg1LjEzMDIsNzQwLjE5NTMgNzg1LjEzMDIsNzM2LjA5MzggTDc4Mi41NzgxLDczNi4wOTM4IFogTTc3Ni4zODAyLDczNy4wOTY0IEw3ODMuNTgwNyw3MzcuMDk2NCBMNzgzLjU4MDcsNzM0LjU0NDMgTDc3Ni4zODAyLDczNC41NDQzIEw3NzYuMzgwMiw3MzcuMDk2NCBaICIgZmlsbD0iIzAwMDAwMCIvPjx0ZXh0IGZpbGw9IiMwMDAwMDAiIGZvbnQtZmFtaWx5PSJzYW5zLXNlcmlmIiBmb250LXNpemU9IjIwLjQxNjciIGxlbmd0aEFkanVzdD0ic3BhY2luZyIgdGV4dExlbmd0aD0iMTEyLjI5MTciIHg9IjgwOS43Mzk2IiB5PSI3NTAuNjY1NyI+UmVzZXJ2YXRpb248L3RleHQ+PGxpbmUgc3R5bGU9InN0cm9rZTojMTgxODE4O3N0cm9rZS13aWR0aDowLjcyOTI7IiB4MT0iNjQwLjkzNzUiIHgyPSIxMDQzLjQzNzUiIHkxPSI3NjUuNjI1IiB5Mj0iNzY1LjYyNSIvPjx0ZXh0IGZpbGw9IiMwMDAwMDAiIGZvbnQtZmFtaWx5PSJzYW5zLXNlcmlmIiBmb250LXNpemU9IjIwLjQxNjciIGxlbmd0aEFkanVzdD0ic3BhY2luZyIgdGV4dExlbmd0aD0iMTIyLjUiIHg9IjY0OC4yMjkyIiB5PSI3OTAuNzU4NSI+LWlkIDogU3RyaW5nPC90ZXh0Pjx0ZXh0IGZpbGw9IiMwMDAwMDAiIGZvbnQtZmFtaWx5PSJzYW5zLXNlcmlmIiBmb250LXNpemU9IjIwLjQxNjciIGxlbmd0aEFkanVzdD0ic3BhY2luZyIgdGV4dExlbmd0aD0iMTYzLjMzMzMiIHg9IjY0OC4yMjkyIiB5PSI4MTIuNjEwNyI+LXN0YXR1dCA6IFN0YXR1dDwvdGV4dD48dGV4dCBmaWxsPSIjMDAwMDAwIiBmb250LWZhbWlseT0ic2Fucy1zZXJpZiIgZm9udC1zaXplPSIyMC40MTY3IiBsZW5ndGhBZGp1c3Q9InNwYWNpbmciIHRleHRMZW5ndGg9IjE2My4zMzMzIiB4PSI2NDguMjI5MiIgeT0iODM0LjQ2MjkiPi1jbGllbnQgOiBDbGllbnQ8L3RleHQ+PHRleHQgZmlsbD0iIzAwMDAwMCIgZm9udC1mYW1pbHk9InNhbnMtc2VyaWYiIGZvbnQtc2l6ZT0iMjAuNDE2NyIgbGVuZ3RoQWRqdXN0PSJzcGFjaW5nIiB0ZXh0TGVuZ3RoPSIyNjUuNDE2NyIgeD0iNjQ4LjIyOTIiIHk9Ijg1Ni4zMTUxIj4taGViZXJnZW1lbnQgOiBIZWJlcmdlbWVudDwvdGV4dD48dGV4dCBmaWxsPSIjMDAwMDAwIiBmb250LWZhbWlseT0ic2Fucy1zZXJpZiIgZm9udC1zaXplPSIyMC40MTY3IiBsZW5ndGhBZGp1c3Q9InNwYWNpbmciIHRleHRMZW5ndGg9IjE4My43NSIgeD0iNjQ4LjIyOTIiIHk9Ijg3OC4xNjczIj4tZGVidXQgOiBMb2NhbERhdGU8L3RleHQ+PHRleHQgZmlsbD0iIzAwMDAwMCIgZm9udC1mYW1pbHk9InNhbnMtc2VyaWYiIGZvbnQtc2l6ZT0iMjAuNDE2NyIgbGVuZ3RoQWRqdXN0PSJzcGFjaW5nIiB0ZXh0TGVuZ3RoPSIxNjMuMzMzMyIgeD0iNjQ4LjIyOTIiIHk9IjkwMC4wMTk1Ij4tZmluIDogTG9jYWxEYXRlPC90ZXh0Pjx0ZXh0IGZpbGw9IiMwMDAwMDAiIGZvbnQtZmFtaWx5PSJzYW5zLXNlcmlmIiBmb250LXNpemU9IjIwLjQxNjciIGxlbmd0aEFkanVzdD0ic3BhY2luZyIgdGV4dExlbmd0aD0iMTUzLjEyNSIgeD0iNjQ4LjIyOTIiIHk9IjkyMS44NzE3Ij4tdG90YWwgOiBkb3VibGU8L3RleHQ+PHRleHQgZmlsbD0iIzAwMDAwMCIgZm9udC1mYW1pbHk9InNhbnMtc2VyaWYiIGZvbnQtc2l6ZT0iMjAuNDE2NyIgbGVuZ3RoQWRqdXN0PSJzcGFjaW5nIiB0ZXh0TGVuZ3RoPSIyOTYuMDQxNyIgeD0iNjQ4LjIyOTIiIHk9Ijk0My43MjQiPi1kYXRlQ3JlYXRpb24gOiBMb2NhbERhdGVUaW1lPC90ZXh0PjxsaW5lIHN0eWxlPSJzdHJva2U6IzE4MTgxODtzdHJva2Utd2lkdGg6MC43MjkyOyIgeDE9IjY0MC45Mzc1IiB4Mj0iMTA0My40Mzc1IiB5MT0iOTUyLjEwOTQiIHkyPSI5NTIuMTA5NCIvPjx0ZXh0IGZpbGw9IiMwMDAwMDAiIGZvbnQtZmFtaWx5PSJzYW5zLXNlcmlmIiBmb250LXNpemU9IjIwLjQxNjciIGxlbmd0aEFkanVzdD0ic3BhY2luZyIgdGV4dExlbmd0aD0iMjU1LjIwODMiIHg9IjY0OC4yMjkyIiB5PSI5NzcuMjQyOCI+K2NhbGN1bGVyVG90YWwoKSA6IGRvdWJsZTwvdGV4dD48dGV4dCBmaWxsPSIjMDAwMDAwIiBmb250LWZhbWlseT0ic2Fucy1zZXJpZiIgZm9udC1zaXplPSIyMC40MTY3IiBsZW5ndGhBZGp1c3Q9InNwYWNpbmciIHRleHRMZW5ndGg9IjM4Ny45MTY3IiB4PSI2NDguMjI5MiIgeT0iOTk5LjA5NTEiPithcHBsaXF1ZXJSZWR1Y3Rpb24ocGN0OmRvdWJsZSkgOiB2b2lkPC90ZXh0Pjx0ZXh0IGZpbGw9IiMwMDAwMDAiIGZvbnQtZmFtaWx5PSJzYW5zLXNlcmlmIiBmb250LXNpemU9IjIwLjQxNjciIGxlbmd0aEFkanVzdD0ic3BhY2luZyIgdGV4dExlbmd0aD0iMTczLjU0MTciIHg9IjY0OC4yMjkyIiB5PSIxMDIwLjk0NzMiPithbm51bGVyKCkgOiB2b2lkPC90ZXh0Pjx0ZXh0IGZpbGw9IiMwMDAwMDAiIGZvbnQtZmFtaWx5PSJzYW5zLXNlcmlmIiBmb250LXNpemU9IjIwLjQxNjciIGxlbmd0aEFkanVzdD0ic3BhY2luZyIgdGV4dExlbmd0aD0iMjI0LjU4MzMiIHg9IjY0OC4yMjkyIiB5PSIxMDQyLjc5OTUiPitlc3RBY3RpdmUoKSA6IGJvb2xlYW48L3RleHQ+PC9nPjwhLS1jbGFzcyBTdGF0dXQtLT48ZyBjbGFzcz0iZW50aXR5IiBkYXRhLWVudGl0eT0iU3RhdHV0IiBkYXRhLXNvdXJjZS1saW5lPSI4MiIgZGF0YS11aWQ9ImVudDAwMjMiIGlkPSJlbnRpdHlfU3RhdHV0Ij48cmVjdCBmaWxsPSIjRjFGMUYxIiBoZWlnaHQ9IjEzNS41NTY2IiByeD0iMy42NDU4IiByeT0iMy42NDU4IiBzdHlsZT0ic3Ryb2tlOiMxODE4MTg7c3Ryb2tlLXdpZHRoOjAuNzI5MjsiIHdpZHRoPSIxMTkuNTgzMyIgeD0iMjIwNS43MjkyIiB5PSI1My45NTgzIi8+PGVsbGlwc2UgY3g9IjIyMzIuODU0MiIgY3k9Ijc3LjI5MTciIGZpbGw9IiNFQjkzN0YiIHJ4PSIxNi4wNDE3IiByeT0iMTYuMDQxNyIgc3R5bGU9InN0cm9rZTojMTgxODE4O3N0cm9rZS13aWR0aDoxLjQ1ODM7Ii8+PHBhdGggZD0iTTIyMzguMTQwNiw4Ni4wNDE3IEwyMjM4LjE0MDYsODMuNDg5NiBMMjIzMC4zOTMyLDgzLjQ4OTYgUTIyMzAuMzkzMiw4My40ODk2IDIyMzAuMzkzMiw3OC4yOTQzIEwyMjM2LjU5MTEsNzguMjk0MyBMMjIzNi41OTExLDc1Ljc0MjIgTDIyMzAuMzkzMiw3NS43NDIyIEwyMjMwLjM5MzIsNzIuMDk2NCBMMjIzOC4xNDA2LDcyLjA5NjQgTDIyMzguMTQwNiw2OS41NDQzIEwyMjI3Ljg0MTEsNjkuNTQ0MyBRMjIyNy44NDExLDY5LjU0NDMgMjIyNy44NDExLDg2LjA0MTcgTDIyMzguMTQwNiw4Ni4wNDE3IFogIiBmaWxsPSIjMDAwMDAwIi8+PHRleHQgZmlsbD0iIzAwMDAwMCIgZm9udC1mYW1pbHk9InNhbnMtc2VyaWYiIGZvbnQtc2l6ZT0iMjAuNDE2NyIgbGVuZ3RoQWRqdXN0PSJzcGFjaW5nIiB0ZXh0TGVuZ3RoPSI2MS4yNSIgeD0iMjI1NC40Mzc1IiB5PSI4NS42NjU3Ij5TdGF0dXQ8L3RleHQ+PGxpbmUgc3R5bGU9InN0cm9rZTojMTgxODE4O3N0cm9rZS13aWR0aDowLjcyOTI7IiB4MT0iMjIwNy4xODc1IiB4Mj0iMjMyMy44NTQyIiB5MT0iMTAwLjYyNSIgeTI9IjEwMC42MjUiLz48dGV4dCBmaWxsPSIjMDAwMDAwIiBmb250LWZhbWlseT0ic2Fucy1zZXJpZiIgZm9udC1zaXplPSIyMC40MTY3IiBsZW5ndGhBZGp1c3Q9InNwYWNpbmciIHRleHRMZW5ndGg9IjEwMi4wODMzIiB4PSIyMjE0LjQ3OTIiIHk9IjEyNS43NTg1Ij5FTl9BVFRFTlRFPC90ZXh0Pjx0ZXh0IGZpbGw9IiMwMDAwMDAiIGZvbnQtZmFtaWx5PSJzYW5zLXNlcmlmIiBmb250LXNpemU9IjIwLjQxNjciIGxlbmd0aEFkanVzdD0ic3BhY2luZyIgdGV4dExlbmd0aD0iOTEuODc1IiB4PSIyMjE0LjQ3OTIiIHk9IjE0Ny42MTA3Ij5DT05GSVJNRUU8L3RleHQ+PHRleHQgZmlsbD0iIzAwMDAwMCIgZm9udC1mYW1pbHk9InNhbnMtc2VyaWYiIGZvbnQtc2l6ZT0iMjAuNDE2NyIgbGVuZ3RoQWRqdXN0PSJzcGFjaW5nIiB0ZXh0TGVuZ3RoPSI3MS40NTgzIiB4PSIyMjE0LjQ3OTIiIHk9IjE2OS40NjI5Ij5BTk5VTEVFPC90ZXh0PjxsaW5lIHN0eWxlPSJzdHJva2U6IzE4MTgxODtzdHJva2Utd2lkdGg6MC43MjkyOyIgeDE9IjIyMDcuMTg3NSIgeDI9IjIzMjMuODU0MiIgeTE9IjE3Ny44NDgzIiB5Mj0iMTc3Ljg0ODMiLz48L2c+PCEtLWNsYXNzIFBlcmlvZGUtLT48ZyBjbGFzcz0iZW50aXR5IiBkYXRhLWVudGl0eT0iUGVyaW9kZSIgZGF0YS1zb3VyY2UtbGluZT0iODgiIGRhdGEtdWlkPSJlbnQwMDI0IiBpZD0iZW50aXR5X1BlcmlvZGUiPjxyZWN0IGZpbGw9IiNGMUYxRjEiIGhlaWdodD0iMTU3LjQwODkiIHJ4PSIzLjY0NTgiIHJ5PSIzLjY0NTgiIHN0eWxlPSJzdHJva2U6IzE4MTgxODtzdHJva2Utd2lkdGg6MC43MjkyOyIgd2lkdGg9IjMzMy45NTgzIiB4PSIxMTE4LjU0MTciIHk9IjExNjAuODMzMyIvPjxlbGxpcHNlIGN4PSIxMjQzLjU5MzgiIGN5PSIxMTg0LjE2NjciIGZpbGw9IiNBREQxQjIiIHJ4PSIxNi4wNDE3IiByeT0iMTYuMDQxNyIgc3R5bGU9InN0cm9rZTojMTgxODE4O3N0cm9rZS13aWR0aDoxLjQ1ODM7Ii8+PHBhdGggZD0iTTEyNDAuMTMwMiwxMTkwLjM2NDYgTDEyNDAuMTMwMiwxMTkyLjkxNjcgTDEyNDcuMzMwNywxMTkyLjkxNjcgTDEyNDcuMzMwNywxMTkwLjM2NDYgTDEyNDAuMTMwMiwxMTkwLjM2NDYgWiBNMTI0MS4xMzI4LDExOTEuMzY3MiBRMTI0MS4xMzI4LDExOTEuMzY3MiAxMjQxLjEzMjgsMTE3Ny45Njg4IEwxMjM4LjU4MDcsMTE3Ny45Njg4IFExMjM4LjU4MDcsMTE3Ny45Njg4IDEyMzguNTgwNywxMTkxLjM2NzIgTDEyNDEuMTMyOCwxMTkxLjM2NzIgWiBNMTI0Ni4zMjgxLDExOTEuMzY3MiBMMTI0OC44ODAyLDExOTEuMzY3MiBRMTI0OC44ODAyLDExOTEuMzY3MiAxMjQ4Ljg4MDIsMTE4Ny4yNjU2IEwxMjQ2LjMyODEsMTE4Ny4yNjU2IFExMjQ2LjMyODEsMTE4Ny4yNjU2IDEyNDYuMzI4MSwxMTkxLjM2NzIgWiBNMTI0Ni4zMjgxLDExNzcuOTY4OCBRMTI0Ni4zMjgxLDExNzcuOTY4OCAxMjQ2LjMyODEsMTE4Mi4wNzAzIEwxMjQ4Ljg4MDIsMTE4Mi4wNzAzIFExMjQ4Ljg4MDIsMTE4Mi4wNzAzIDEyNDguODgwMiwxMTc3Ljk2ODggTDEyNDYuMzI4MSwxMTc3Ljk2ODggWiBNMTI0MC4xMzAyLDExNzguOTcxNCBMMTI0Ny4zMzA3LDExNzguOTcxNCBMMTI0Ny4zMzA3LDExNzYuNDE5MyBMMTI0MC4xMzAyLDExNzYuNDE5MyBMMTI0MC4xMzAyLDExNzguOTcxNCBaICIgZmlsbD0iIzAwMDAwMCIvPjx0ZXh0IGZpbGw9IiMwMDAwMDAiIGZvbnQtZmFtaWx5PSJzYW5zLXNlcmlmIiBmb250LXNpemU9IjIwLjQxNjciIGxlbmd0aEFkanVzdD0ic3BhY2luZyIgdGV4dExlbmd0aD0iNzEuNDU4MyIgeD0iMTI3My40ODk2IiB5PSIxMTkyLjU0MDciPlBlcmlvZGU8L3RleHQ+PGxpbmUgc3R5bGU9InN0cm9rZTojMTgxODE4O3N0cm9rZS13aWR0aDowLjcyOTI7IiB4MT0iMTEyMCIgeDI9IjE0NTEuMDQxNyIgeTE9IjEyMDcuNSIgeTI9IjEyMDcuNSIvPjx0ZXh0IGZpbGw9IiMwMDAwMDAiIGZvbnQtZmFtaWx5PSJzYW5zLXNlcmlmIiBmb250LXNpemU9IjIwLjQxNjciIGxlbmd0aEFkanVzdD0ic3BhY2luZyIgdGV4dExlbmd0aD0iMTgzLjc1IiB4PSIxMTI3LjI5MTciIHk9IjEyMzIuNjMzNSI+LWRlYnV0IDogTG9jYWxEYXRlPC90ZXh0Pjx0ZXh0IGZpbGw9IiMwMDAwMDAiIGZvbnQtZmFtaWx5PSJzYW5zLXNlcmlmIiBmb250LXNpemU9IjIwLjQxNjciIGxlbmd0aEFkanVzdD0ic3BhY2luZyIgdGV4dExlbmd0aD0iMTYzLjMzMzMiIHg9IjExMjcuMjkxNyIgeT0iMTI1NC40ODU3Ij4tZmluIDogTG9jYWxEYXRlPC90ZXh0PjxsaW5lIHN0eWxlPSJzdHJva2U6IzE4MTgxODtzdHJva2Utd2lkdGg6MC43MjkyOyIgeDE9IjExMjAiIHgyPSIxNDUxLjA0MTciIHkxPSIxMjYyLjg3MTEiIHkyPSIxMjYyLjg3MTEiLz48dGV4dCBmaWxsPSIjMDAwMDAwIiBmb250LWZhbWlseT0ic2Fucy1zZXJpZiIgZm9udC1zaXplPSIyMC40MTY3IiBsZW5ndGhBZGp1c3Q9InNwYWNpbmciIHRleHRMZW5ndGg9IjE3My41NDE3IiB4PSIxMTI3LjI5MTciIHk9IjEyODguMDA0NiI+K25iTnVpdHMoKSA6IGxvbmc8L3RleHQ+PHRleHQgZmlsbD0iIzAwMDAwMCIgZm9udC1mYW1pbHk9InNhbnMtc2VyaWYiIGZvbnQtc2l6ZT0iMjAuNDE2NyIgbGVuZ3RoQWRqdXN0PSJzcGFjaW5nIiB0ZXh0TGVuZ3RoPSIzMTYuNDU4MyIgeD0iMTEyNy4yOTE3IiB5PSIxMzA5Ljg1NjgiPitjaGV2YXVjaGUocDpQZXJpb2RlKSA6IGJvb2xlYW48L3RleHQ+PC9nPjwhLS1jbGFzcyBDb2xsZWN0aW9uSGViZXJnZW1lbnRzLS0+PGcgY2xhc3M9ImVudGl0eSIgZGF0YS1lbnRpdHk9IkNvbGxlY3Rpb25IZWJlcmdlbWVudHMiIGRhdGEtc291cmNlLWxpbmU9Ijk1IiBkYXRhLXVpZD0iZW50MDAyNSIgaWQ9ImVudGl0eV9Db2xsZWN0aW9uSGViZXJnZW1lbnRzIj48cmVjdCBmaWxsPSIjRjFGMUYxIiBoZWlnaHQ9IjE1Ny40MDg5IiByeD0iMy42NDU4IiByeT0iMy42NDU4IiBzdHlsZT0ic3Ryb2tlOiMxODE4MTg7c3Ryb2tlLXdpZHRoOjAuNzI5MjsiIHdpZHRoPSI1NzguOTU4MyIgeD0iMTU3NSIgeT0iNDMuMDIwOCIvPjxlbGxpcHNlIGN4PSIxNzQ1Ljk4OTYiIGN5PSI2Ni4zNTQyIiBmaWxsPSIjQUREMUIyIiByeD0iMTYuMDQxNyIgcnk9IjE2LjA0MTciIHN0eWxlPSJzdHJva2U6IzE4MTgxODtzdHJva2Utd2lkdGg6MS40NTgzOyIvPjxwYXRoIGQ9Ik0xNzQyLjUyNiw3Mi41NTIxIEwxNzQyLjUyNiw3NS4xMDQyIEwxNzQ5LjcyNjYsNzUuMTA0MiBMMTc0OS43MjY2LDcyLjU1MjEgTDE3NDIuNTI2LDcyLjU1MjEgWiBNMTc0My41Mjg2LDczLjU1NDcgUTE3NDMuNTI4Niw3My41NTQ3IDE3NDMuNTI4Niw2MC4xNTYzIEwxNzQwLjk3NjYsNjAuMTU2MyBRMTc0MC45NzY2LDYwLjE1NjMgMTc0MC45NzY2LDczLjU1NDcgTDE3NDMuNTI4Niw3My41NTQ3IFogTTE3NDguNzI0LDczLjU1NDcgTDE3NTEuMjc2LDczLjU1NDcgUTE3NTEuMjc2LDczLjU1NDcgMTc1MS4yNzYsNjkuNDUzMSBMMTc0OC43MjQsNjkuNDUzMSBRMTc0OC43MjQsNjkuNDUzMSAxNzQ4LjcyNCw3My41NTQ3IFogTTE3NDguNzI0LDYwLjE1NjMgUTE3NDguNzI0LDYwLjE1NjMgMTc0OC43MjQsNjQuMjU3OCBMMTc1MS4yNzYsNjQuMjU3OCBRMTc1MS4yNzYsNjQuMjU3OCAxNzUxLjI3Niw2MC4xNTYzIEwxNzQ4LjcyNCw2MC4xNTYzIFogTTE3NDIuNTI2LDYxLjE1ODkgTDE3NDkuNzI2Niw2MS4xNTg5IEwxNzQ5LjcyNjYsNTguNjA2OCBMMTc0Mi41MjYsNTguNjA2OCBMMTc0Mi41MjYsNjEuMTU4OSBaICIgZmlsbD0iIzAwMDAwMCIvPjx0ZXh0IGZpbGw9IiMwMDAwMDAiIGZvbnQtZmFtaWx5PSJzYW5zLXNlcmlmIiBmb250LXNpemU9IjIwLjQxNjciIGxlbmd0aEFkanVzdD0ic3BhY2luZyIgdGV4dExlbmd0aD0iMjI0LjU4MzMiIHg9IjE3NzUuODg1NCIgeT0iNzQuNzI4MiI+Q29sbGVjdGlvbkhlYmVyZ2VtZW50czwvdGV4dD48bGluZSBzdHlsZT0ic3Ryb2tlOiMxODE4MTg7c3Ryb2tlLXdpZHRoOjAuNzI5MjsiIHgxPSIxNTc2LjQ1ODMiIHgyPSIyMTUyLjUiIHkxPSI4OS42ODc1IiB5Mj0iODkuNjg3NSIvPjx0ZXh0IGZpbGw9IiMwMDAwMDAiIGZvbnQtZmFtaWx5PSJzYW5zLXNlcmlmIiBmb250LXNpemU9IjIwLjQxNjciIGxlbmd0aEFkanVzdD0ic3BhY2luZyIgdGV4dExlbmd0aD0iMjY1LjQxNjciIHg9IjE1ODMuNzUiIHk9IjExNC44MjEiPi1pdGVtcyA6IExpc3QmbHQ7SGViZXJnZW1lbnQmZ3Q7PC90ZXh0PjxsaW5lIHN0eWxlPSJzdHJva2U6IzE4MTgxODtzdHJva2Utd2lkdGg6MC43MjkyOyIgeDE9IjE1NzYuNDU4MyIgeDI9IjIxNTIuNSIgeTE9IjEyMy4yMDY0IiB5Mj0iMTIzLjIwNjQiLz48dGV4dCBmaWxsPSIjMDAwMDAwIiBmb250LWZhbWlseT0ic2Fucy1zZXJpZiIgZm9udC1zaXplPSIyMC40MTY3IiBsZW5ndGhBZGp1c3Q9InNwYWNpbmciIHRleHRMZW5ndGg9IjMwNi4yNSIgeD0iMTU4My43NSIgeT0iMTQ4LjMzOTgiPitham91dGVyKGg6SGViZXJnZW1lbnQpIDogdm9pZDwvdGV4dD48dGV4dCBmaWxsPSIjMDAwMDAwIiBmb250LWZhbWlseT0ic2Fucy1zZXJpZiIgZm9udC1zaXplPSIyMC40MTY3IiBsZW5ndGhBZGp1c3Q9InNwYWNpbmciIHRleHRMZW5ndGg9IjM1Ny4yOTE3IiB4PSIxNTgzLjc1IiB5PSIxNzAuMTkyMSI+K3RyaWVyUGFyUHJpeCgpIDogTGlzdCZsdDtIZWJlcmdlbWVudCZndDs8L3RleHQ+PHRleHQgZmlsbD0iIzAwMDAwMCIgZm9udC1mYW1pbHk9InNhbnMtc2VyaWYiIGZvbnQtc2l6ZT0iMjAuNDE2NyIgbGVuZ3RoQWRqdXN0PSJzcGFjaW5nIiB0ZXh0TGVuZ3RoPSI1NjEuNDU4MyIgeD0iMTU4My43NSIgeT0iMTkyLjA0NDMiPit0cmllcihjbXA6Q29tcGFyYXRvciZsdDtIZWJlcmdlbWVudCZndDspIDogTGlzdCZsdDtIZWJlcmdlbWVudCZndDs8L3RleHQ+PC9nPjwhLS1yZXZlcnNlIGxpbmsgUGVyc29ubmUgdG8gQ2xpZW50LS0+PGcgY2xhc3M9ImxpbmsiIGRhdGEtZW50aXR5LTE9IlBlcnNvbm5lIiBkYXRhLWVudGl0eS0yPSJDbGllbnQiIGRhdGEtc291cmNlLWxpbmU9IjE2IiBkYXRhLXVpZD0ibG5rNCIgaWQ9ImxpbmtfUGVyc29ubmVfQ2xpZW50Ij48cGF0aCBkPSJNNDkwLjg3NjcsMjUzLjk0NTcgQzQ1NC41NjQyLDI5OS4yNDE1IDQzMS4zNzUsMzMwLjgzNzUgMzk5LjcsMzc0Ljk4MTMiIGZpbGw9Im5vbmUiIGlkPSJQZXJzb25uZS1iYWNrdG8tQ2xpZW50IiBzdHlsZT0ic3Ryb2tlOiMxODE4MTg7c3Ryb2tlLXdpZHRoOjEuNDU4MzsiLz48cG9seWdvbiBmaWxsPSJub25lIiBwb2ludHM9IjUwNy4yOTU4LDIzMy40NjQ2LDQ4NC4wNDk3LDI0OC40NzI2LDQ5Ny43MDM3LDI1OS40MTg3LDUwNy4yOTU4LDIzMy40NjQ2IiBzdHlsZT0ic3Ryb2tlOiMxODE4MTg7c3Ryb2tlLXdpZHRoOjEuNDU4MzsiLz48L2c+PCEtLXJldmVyc2UgbGluayBQZXJzb25uZSB0byBDbGllbnQtLT48ZyBjbGFzcz0ibGluayIgZGF0YS1lbnRpdHktMT0iUGVyc29ubmUiIGRhdGEtZW50aXR5LTI9IkNsaWVudCIgZGF0YS1zb3VyY2UtbGluZT0iMTAzIiBkYXRhLXVpZD0ibG5rMjYiIGlkPSJsaW5rX1BlcnNvbm5lX0NsaWVudCI+PHBhdGggY29kZUxpbmU9IjEwMyIgZD0iTTUyNy43MzA5LDI1NC43MzU5IEM0OTQuOTc2NywzMDAuMDMxNyA0NzAuNDQzNywzMzAuODM3NSA0MzQuNTk3OSwzNzQuOTgxMyIgZmlsbD0ibm9uZSIgaWQ9IlBlcnNvbm5lLWJhY2t0by1DbGllbnQtMSIgc3R5bGU9InN0cm9rZTojMTgxODE4O3N0cm9rZS13aWR0aDoxLjQ1ODM7Ii8+PHBvbHlnb24gZmlsbD0ibm9uZSIgcG9pbnRzPSI1NDMuMTEyNSwyMzMuNDY0Niw1MjAuNjQwNCwyNDkuNjA4Nyw1MzQuODIxMywyNTkuODYzMSw1NDMuMTEyNSwyMzMuNDY0NiIgc3R5bGU9InN0cm9rZTojMTgxODE4O3N0cm9rZS13aWR0aDoxLjQ1ODM7Ii8+PC9nPjwhLS1yZXZlcnNlIGxpbmsgUGVyc29ubmUgdG8gQWRtaW5pc3RyYXRldXItLT48ZyBjbGFzcz0ibGluayIgZGF0YS1lbnRpdHktMT0iUGVyc29ubmUiIGRhdGEtZW50aXR5LTI9IkFkbWluaXN0cmF0ZXVyIiBkYXRhLXNvdXJjZS1saW5lPSIyNSIgZGF0YS11aWQ9ImxuazYiIGlkPSJsaW5rX1BlcnNvbm5lX0FkbWluaXN0cmF0ZXVyIj48cGF0aCBkPSJNNzE2LjQwMDMsMjUyLjY2MjcgQzc2NS45NjkxLDMwNS44MTg5IDgwOS4yNzI5LDM0OS4wODEzIDg1OS4wNzUsMzk3LjEzMzMiIGZpbGw9Im5vbmUiIGlkPSJQZXJzb25uZS1iYWNrdG8tQWRtaW5pc3RyYXRldXIiIHN0eWxlPSJzdHJva2U6IzE4MTgxODtzdHJva2Utd2lkdGg6MS40NTgzOyIvPjxwb2x5Z29uIGZpbGw9Im5vbmUiIHBvaW50cz0iNjk4LjQ5NzksMjMzLjQ2NDYsNzEwLjAwMSwyNTguNjMwMSw3MjIuNzk5NywyNDYuNjk1Miw2OTguNDk3OSwyMzMuNDY0NiIgc3R5bGU9InN0cm9rZTojMTgxODE4O3N0cm9rZS13aWR0aDoxLjQ1ODM7Ii8+PC9nPjwhLS1yZXZlcnNlIGxpbmsgUGVyc29ubmUgdG8gQWRtaW5pc3RyYXRldXItLT48ZyBjbGFzcz0ibGluayIgZGF0YS1lbnRpdHktMT0iUGVyc29ubmUiIGRhdGEtZW50aXR5LTI9IkFkbWluaXN0cmF0ZXVyIiBkYXRhLXNvdXJjZS1saW5lPSIxMDQiIGRhdGEtdWlkPSJsbmsyNyIgaWQ9ImxpbmtfUGVyc29ubmVfQWRtaW5pc3RyYXRldXIiPjxwYXRoIGNvZGVMaW5lPSIxMDQiIGQ9Ik03NDMuODUzOCwyNDIuODAzMiBDNzk5LjgxMDEsMjk3Ljc2NzggODQ1LjU4NTQsMzQ2LjI2NjcgODkxLjM5MTcsMzk3LjA2MDQiIGZpbGw9Im5vbmUiIGlkPSJQZXJzb25uZS1iYWNrdG8tQWRtaW5pc3RyYXRldXItMSIgc3R5bGU9InN0cm9rZTojMTgxODE4O3N0cm9rZS13aWR0aDoxLjQ1ODM7Ii8+PHBvbHlnb24gZmlsbD0ibm9uZSIgcG9pbnRzPSI3MjUuMTI3MSwyMjQuNDA4Myw3MzcuNzIyMiwyNDkuMDQ1NSw3NDkuOTg1NSwyMzYuNTYxLDcyNS4xMjcxLDIyNC40MDgzIiBzdHlsZT0ic3Ryb2tlOiMxODE4MTg7c3Ryb2tlLXdpZHRoOjEuNDU4MzsiLz48L2c+PCEtLXJldmVyc2UgbGluayBDbGllbnQgdG8gTm91dmVhdUNsaWVudC0tPjxnIGNsYXNzPSJsaW5rIiBkYXRhLWVudGl0eS0xPSJDbGllbnQiIGRhdGEtZW50aXR5LTI9Ik5vdXZlYXVDbGllbnQiIGRhdGEtc291cmNlLWxpbmU9IjMyIiBkYXRhLXVpZD0ibG5rOCIgaWQ9ImxpbmtfQ2xpZW50X05vdXZlYXVDbGllbnQiPjxwYXRoIGQ9Ik0yNjkuNjcxNiw2MDAuNTg4IEMyMjkuMjAyOSw2ODQuMTk0MyAxOTEuNzI3MSw3NzYuMjI3MSAxNzEuMzM5Niw4MzguOTUiIGZpbGw9Im5vbmUiIGlkPSJDbGllbnQtYmFja3RvLU5vdXZlYXVDbGllbnQiIHN0eWxlPSJzdHJva2U6IzE4MTgxODtzdHJva2Utd2lkdGg6MS40NTgzOyIvPjxwb2x5Z29uIGZpbGw9Im5vbmUiIHBvaW50cz0iMjgxLjEwODMsNTc2Ljk2MDQsMjYxLjc5NTgsNTk2Ljc3NTgsMjc3LjU0NzUsNjA0LjQwMDMsMjgxLjEwODMsNTc2Ljk2MDQiIHN0eWxlPSJzdHJva2U6IzE4MTgxODtzdHJva2Utd2lkdGg6MS40NTgzOyIvPjwvZz48IS0tcmV2ZXJzZSBsaW5rIENsaWVudCB0byBOb3V2ZWF1Q2xpZW50LS0+PGcgY2xhc3M9ImxpbmsiIGRhdGEtZW50aXR5LTE9IkNsaWVudCIgZGF0YS1lbnRpdHktMj0iTm91dmVhdUNsaWVudCIgZGF0YS1zb3VyY2UtbGluZT0iMTA1IiBkYXRhLXVpZD0ibG5rMjgiIGlkPSJsaW5rX0NsaWVudF9Ob3V2ZWF1Q2xpZW50Ij48cGF0aCBjb2RlTGluZT0iMTA1IiBkPSJNMzA1LjE4NDQsNjAxLjQ4MzYgQzI3My4yNjE0LDY4NS4wODk4IDIzMC45NDE3LDc3Ni4yMjcxIDE5Ni40Mzc1LDgzOC45NSIgZmlsbD0ibm9uZSIgaWQ9IkNsaWVudC1iYWNrdG8tTm91dmVhdUNsaWVudC0xIiBzdHlsZT0ic3Ryb2tlOiMxODE4MTg7c3Ryb2tlLXdpZHRoOjEuNDU4MzsiLz48cG9seWdvbiBmaWxsPSJub25lIiBwb2ludHM9IjMxNC41NDc5LDU3Ni45NjA0LDI5Ny4wMSw1OTguMzYyNCwzMTMuMzU4OCw2MDQuNjA0OCwzMTQuNTQ3OSw1NzYuOTYwNCIgc3R5bGU9InN0cm9rZTojMTgxODE4O3N0cm9rZS13aWR0aDoxLjQ1ODM7Ii8+PC9nPjwhLS1yZXZlcnNlIGxpbmsgQ2xpZW50IHRvIEFuY2llbkNsaWVudC0tPjxnIGNsYXNzPSJsaW5rIiBkYXRhLWVudGl0eS0xPSJDbGllbnQiIGRhdGEtZW50aXR5LTI9IkFuY2llbkNsaWVudCIgZGF0YS1zb3VyY2UtbGluZT0iMzYiIGRhdGEtdWlkPSJsbmsxMCIgaWQ9ImxpbmtfQ2xpZW50X0FuY2llbkNsaWVudCI+PHBhdGggZD0iTTM1NS43NzMzLDYwMi42Mzc5IEMzNzIuNTI5Niw2ODEuNTQ4MyAzOTYuMjI5Miw3NjMuMzM1NCA0MTkuMDUyMSw4MjcuODk1OCIgZmlsbD0ibm9uZSIgaWQ9IkNsaWVudC1iYWNrdG8tQW5jaWVuQ2xpZW50IiBzdHlsZT0ic3Ryb2tlOiMxODE4MTg7c3Ryb2tlLXdpZHRoOjEuNDU4MzsiLz48cG9seWdvbiBmaWxsPSJub25lIiBwb2ludHM9IjM1MC4zMjA4LDU3Ni45NjA0LDM0Ny4yMTQyLDYwNC40NTU0LDM2NC4zMzI1LDYwMC44MjA0LDM1MC4zMjA4LDU3Ni45NjA0IiBzdHlsZT0ic3Ryb2tlOiMxODE4MTg7c3Ryb2tlLXdpZHRoOjEuNDU4MzsiLz48L2c+PCEtLXJldmVyc2UgbGluayBDbGllbnQgdG8gQW5jaWVuQ2xpZW50LS0+PGcgY2xhc3M9ImxpbmsiIGRhdGEtZW50aXR5LTE9IkNsaWVudCIgZGF0YS1lbnRpdHktMj0iQW5jaWVuQ2xpZW50IiBkYXRhLXNvdXJjZS1saW5lPSIxMDYiIGRhdGEtdWlkPSJsbmsyOSIgaWQ9ImxpbmtfQ2xpZW50X0FuY2llbkNsaWVudCI+PHBhdGggY29kZUxpbmU9IjEwNiIgZD0iTTM5MS42NDEsNjAxLjk5OTYgQzQxNi40NzY0LDY4MC45MSA0MzUuNzIwOCw3NjMuMzM1NCA0NDYuNDEwNCw4MjcuODk1OCIgZmlsbD0ibm9uZSIgaWQ9IkNsaWVudC1iYWNrdG8tQW5jaWVuQ2xpZW50LTEiIHN0eWxlPSJzdHJva2U6IzE4MTgxODtzdHJva2Utd2lkdGg6MS40NTgzOyIvPjxwb2x5Z29uIGZpbGw9Im5vbmUiIHBvaW50cz0iMzgzLjc2MDQsNTc2Ljk2MDQsMzgzLjI5NDYsNjA0LjYyNjQsMzk5Ljk4NzQsNTk5LjM3MjcsMzgzLjc2MDQsNTc2Ljk2MDQiIHN0eWxlPSJzdHJva2U6IzE4MTgxODtzdHJva2Utd2lkdGg6MS40NTgzOyIvPjwvZz48IS0tcmV2ZXJzZSBsaW5rIFJlc2VydmFibGUgdG8gSGViZXJnZW1lbnQtLT48ZyBjbGFzcz0ibGluayIgZGF0YS1lbnRpdHktMT0iUmVzZXJ2YWJsZSIgZGF0YS1lbnRpdHktMj0iSGViZXJnZW1lbnQiIGRhdGEtc291cmNlLWxpbmU9IjUxIiBkYXRhLXVpZD0ibG5rMTMiIGlkPSJsaW5rX1Jlc2VydmFibGVfSGViZXJnZW1lbnQiPjxwYXRoIGQ9Ik0xMTczLjQxNDksMjQyLjY1MTQgQzEyMDQuNTM1OCwyNzkuODA5NyAxMjI1LjExNjcsMzAyLjQ4NzUgMTI2MS4xMzc1LDM0Mi4xNTQyIiBmaWxsPSJub25lIiBpZD0iUmVzZXJ2YWJsZS1iYWNrdG8tSGViZXJnZW1lbnQiIHN0eWxlPSJzdHJva2U6IzE4MTgxODtzdHJva2Utd2lkdGg6MS40NTgzO3N0cm9rZS1kYXNoYXJyYXk6Ny4wLDcuMDsiLz48cG9seWdvbiBmaWxsPSJub25lIiBwb2ludHM9IjExNTYuNTYwNCwyMjIuNTI3MSwxMTY2LjcwNjgsMjQ4LjI2OTYsMTE4MC4xMjMsMjM3LjAzMzIsMTE1Ni41NjA0LDIyMi41MjcxIiBzdHlsZT0ic3Ryb2tlOiMxODE4MTg7c3Ryb2tlLXdpZHRoOjEuNDU4MzsiLz48L2c+PCEtLXJldmVyc2UgbGluayBSZXNlcnZhYmxlIHRvIEhlYmVyZ2VtZW50LS0+PGcgY2xhc3M9ImxpbmsiIGRhdGEtZW50aXR5LTE9IlJlc2VydmFibGUiIGRhdGEtZW50aXR5LTI9IkhlYmVyZ2VtZW50IiBkYXRhLXNvdXJjZS1saW5lPSIxMDgiIGRhdGEtdWlkPSJsbmszMCIgaWQ9ImxpbmtfUmVzZXJ2YWJsZV9IZWJlcmdlbWVudCI+PHBhdGggY29kZUxpbmU9IjEwOCIgZD0iTTEyMDkuMzMxNCwyNDEuNzI1MyBDMTI0My45ODE0LDI3OC44ODM2IDEyNjQuMzE2NywzMDIuNDg3NSAxMjk4LjM2ODcsMzQyLjE1NDIiIGZpbGw9Im5vbmUiIGlkPSJSZXNlcnZhYmxlLWJhY2t0by1IZWJlcmdlbWVudC0xIiBzdHlsZT0ic3Ryb2tlOiMxODE4MTg7c3Ryb2tlLXdpZHRoOjEuNDU4MztzdHJva2UtZGFzaGFycmF5OjcuMCw3LjA7Ii8+PHBvbHlnb24gZmlsbD0ibm9uZSIgcG9pbnRzPSIxMTkxLjQyOTIsMjIyLjUyNzEsMTIwMi45MzIsMjQ3LjY5MjcsMTIxNS43MzA4LDIzNS43NTc5LDExOTEuNDI5MiwyMjIuNTI3MSIgc3R5bGU9InN0cm9rZTojMTgxODE4O3N0cm9rZS13aWR0aDoxLjQ1ODM7Ii8+PC9nPjwhLS1yZXZlcnNlIGxpbmsgQ29tcGFyYWJsZSB0byBIZWJlcmdlbWVudC0tPjxnIGNsYXNzPSJsaW5rIiBkYXRhLWVudGl0eS0xPSJDb21wYXJhYmxlIiBkYXRhLWVudGl0eS0yPSJIZWJlcmdlbWVudCIgZGF0YS1zb3VyY2UtbGluZT0iNTEiIGRhdGEtdWlkPSJsbmsxNSIgaWQ9ImxpbmtfQ29tcGFyYWJsZV9IZWJlcmdlbWVudCI+PHBhdGggZD0iTTE0MzkuOTQwMywxODIuODkyNSBDMTQzMy41Njc0LDIyNS41MDUgMTQyNi4xMTg3LDI3NS40MjA4IDE0MTYuMTI5MiwzNDIuMzQzOCIgZmlsbD0ibm9uZSIgaWQ9IkNvbXBhcmFibGUtYmFja3RvLUhlYmVyZ2VtZW50IiBzdHlsZT0ic3Ryb2tlOiMxODE4MTg7c3Ryb2tlLXdpZHRoOjEuNDU4MztzdHJva2UtZGFzaGFycmF5OjcuMCw3LjA7Ii8+PHBvbHlnb24gZmlsbD0ibm9uZSIgcG9pbnRzPSIxNDQzLjgyMjksMTU2LjkzMTMsMTQzMS4yODY1LDE4MS41OTgzLDE0NDguNTk0LDE4NC4xODY3LDE0NDMuODIyOSwxNTYuOTMxMyIgc3R5bGU9InN0cm9rZTojMTgxODE4O3N0cm9rZS13aWR0aDoxLjQ1ODM7Ii8+PC9nPjwhLS1yZXZlcnNlIGxpbmsgSGViZXJnZW1lbnQgdG8gQ2hhbWJyZUhvdGVsLS0+PGcgY2xhc3M9ImxpbmsiIGRhdGEtZW50aXR5LTE9IkhlYmVyZ2VtZW50IiBkYXRhLWVudGl0eS0yPSJDaGFtYnJlSG90ZWwiIGRhdGEtc291cmNlLWxpbmU9IjYyIiBkYXRhLXVpZD0ibG5rMTciIGlkPSJsaW5rX0hlYmVyZ2VtZW50X0NoYW1icmVIb3RlbCI+PHBhdGggZD0iTTEyOTUuNTY5Niw2MzIuOTE4NiBDMTI0OC4wODYyLDcxNy4zOTk4IDEyMDguMzc1LDc5Ny42NSAxMTg3LjY1MjEsODQ5LjkxNjciIGZpbGw9Im5vbmUiIGlkPSJIZWJlcmdlbWVudC1iYWNrdG8tQ2hhbWJyZUhvdGVsIiBzdHlsZT0ic3Ryb2tlOiMxODE4MTg7c3Ryb2tlLXdpZHRoOjEuNDU4MzsiLz48cG9seWdvbiBmaWxsPSJub25lIiBwb2ludHM9IjEzMDguNDMxMyw2MTAuMDM1NCwxMjg3Ljk0MTksNjI4LjYzMTQsMTMwMy4xOTczLDYzNy4yMDU4LDEzMDguNDMxMyw2MTAuMDM1NCIgc3R5bGU9InN0cm9rZTojMTgxODE4O3N0cm9rZS13aWR0aDoxLjQ1ODM7Ii8+PC9nPjwhLS1yZXZlcnNlIGxpbmsgSGViZXJnZW1lbnQgdG8gQ2hhbWJyZUhvdGVsLS0+PGcgY2xhc3M9ImxpbmsiIGRhdGEtZW50aXR5LTE9IkhlYmVyZ2VtZW50IiBkYXRhLWVudGl0eS0yPSJDaGFtYnJlSG90ZWwiIGRhdGEtc291cmNlLWxpbmU9IjEwOSIgZGF0YS11aWQ9ImxuazMxIiBpZD0ibGlua19IZWJlcmdlbWVudF9DaGFtYnJlSG90ZWwiPjxwYXRoIGNvZGVMaW5lPSIxMDkiIGQ9Ik0xMzMyLjg0NzIsNjMzLjUyMyBDMTI5MC42ODY4LDcxOC4wMDQzIDEyNDUuMjI3MSw3OTcuNjUgMTIwOS45OTM4LDg0OS45MTY3IiBmaWxsPSJub25lIiBpZD0iSGViZXJnZW1lbnQtYmFja3RvLUNoYW1icmVIb3RlbC0xIiBzdHlsZT0ic3Ryb2tlOiMxODE4MTg7c3Ryb2tlLXdpZHRoOjEuNDU4MzsiLz48cG9seWdvbiBmaWxsPSJub25lIiBwb2ludHM9IjEzNDQuNTY4OCw2MTAuMDM1NCwxMzI1LjAxOCw2MjkuNjE1OSwxMzQwLjY3NjQsNjM3LjQzMDIsMTM0NC41Njg4LDYxMC4wMzU0IiBzdHlsZT0ic3Ryb2tlOiMxODE4MTg7c3Ryb2tlLXdpZHRoOjEuNDU4MzsiLz48L2c+PCEtLXJldmVyc2UgbGluayBIZWJlcmdlbWVudCB0byBBcHBhcnRlbWVudC0tPjxnIGNsYXNzPSJsaW5rIiBkYXRhLWVudGl0eS0xPSJIZWJlcmdlbWVudCIgZGF0YS1lbnRpdHktMj0iQXBwYXJ0ZW1lbnQiIGRhdGEtc291cmNlLWxpbmU9IjYzIiBkYXRhLXVpZD0ibG5rMTkiIGlkPSJsaW5rX0hlYmVyZ2VtZW50X0FwcGFydGVtZW50Ij48cGF0aCBkPSJNMTM3Ny45OTQyLDYzNi4yNzMyIEMxMzc1LjQxMjksNzIwLjc1NDQgMTM3OC40NDU4LDc5Ny42NSAxMzg1LjQ4OTYsODQ5LjkxNjciIGZpbGw9Im5vbmUiIGlkPSJIZWJlcmdlbWVudC1iYWNrdG8tQXBwYXJ0ZW1lbnQiIHN0eWxlPSJzdHJva2U6IzE4MTgxODtzdHJva2Utd2lkdGg6MS40NTgzOyIvPjxwb2x5Z29uIGZpbGw9Im5vbmUiIHBvaW50cz0iMTM3OC43OTU4LDYxMC4wMzU0LDEzNjkuMjQ4Miw2MzYuMDA1OSwxMzg2Ljc0MDEsNjM2LjU0MDQsMTM3OC43OTU4LDYxMC4wMzU0IiBzdHlsZT0ic3Ryb2tlOiMxODE4MTg7c3Ryb2tlLXdpZHRoOjEuNDU4MzsiLz48L2c+PCEtLXJldmVyc2UgbGluayBIZWJlcmdlbWVudCB0byBBcHBhcnRlbWVudC0tPjxnIGNsYXNzPSJsaW5rIiBkYXRhLWVudGl0eS0xPSJIZWJlcmdlbWVudCIgZGF0YS1lbnRpdHktMj0iQXBwYXJ0ZW1lbnQiIGRhdGEtc291cmNlLWxpbmU9IjExMCIgZGF0YS11aWQ9ImxuazMyIiBpZD0ibGlua19IZWJlcmdlbWVudF9BcHBhcnRlbWVudCI+PHBhdGggY29kZUxpbmU9IjExMCIgZD0iTTE0MTUuNzk0OCw2MzYuMjcxOCBDMTQxOC41MjE5LDcyMC43NTMgMTQxNS4zMTI1LDc5Ny42NSAxNDA3Ljg0NTgsODQ5LjkxNjciIGZpbGw9Im5vbmUiIGlkPSJIZWJlcmdlbWVudC1iYWNrdG8tQXBwYXJ0ZW1lbnQtMSIgc3R5bGU9InN0cm9rZTojMTgxODE4O3N0cm9rZS13aWR0aDoxLjQ1ODM7Ii8+PHBvbHlnb24gZmlsbD0ibm9uZSIgcG9pbnRzPSIxNDE0Ljk0NzksNjEwLjAzNTQsMTQwNy4wNDk0LDYzNi41NTQxLDE0MjQuNTQwMyw2MzUuOTg5NCwxNDE0Ljk0NzksNjEwLjAzNTQiIHN0eWxlPSJzdHJva2U6IzE4MTgxODtzdHJva2Utd2lkdGg6MS40NTgzOyIvPjwvZz48IS0tcmV2ZXJzZSBsaW5rIEhlYmVyZ2VtZW50IHRvIFZpbGxhLS0+PGcgY2xhc3M9ImxpbmsiIGRhdGEtZW50aXR5LTE9IkhlYmVyZ2VtZW50IiBkYXRhLWVudGl0eS0yPSJWaWxsYSIgZGF0YS1zb3VyY2UtbGluZT0iNjQiIGRhdGEtdWlkPSJsbmsyMSIgaWQ9ImxpbmtfSGViZXJnZW1lbnRfVmlsbGEiPjxwYXRoIGQ9Ik0xNDQ3LjI2ODcsNjM0LjMxNDYgQzE0ODEuOTkxNiw3MTguNzk1OSAxNTE5LjgwMjEsNzk3LjY1IDE1NDkuOTMxMiw4NDkuOTE2NyIgZmlsbD0ibm9uZSIgaWQ9IkhlYmVyZ2VtZW50LWJhY2t0by1WaWxsYSIgc3R5bGU9InN0cm9rZTojMTgxODE4O3N0cm9rZS13aWR0aDoxLjQ1ODM7Ii8+PHBvbHlnb24gZmlsbD0ibm9uZSIgcG9pbnRzPSIxNDM3LjI4OTYsNjEwLjAzNTQsMTQzOS4xNzU2LDYzNy42NDEsMTQ1NS4zNjE3LDYzMC45ODgzLDE0MzcuMjg5Niw2MTAuMDM1NCIgc3R5bGU9InN0cm9rZTojMTgxODE4O3N0cm9rZS13aWR0aDoxLjQ1ODM7Ii8+PC9nPjwhLS1yZXZlcnNlIGxpbmsgSGViZXJnZW1lbnQgdG8gVmlsbGEtLT48ZyBjbGFzcz0ibGluayIgZGF0YS1lbnRpdHktMT0iSGViZXJnZW1lbnQiIGRhdGEtZW50aXR5LTI9IlZpbGxhIiBkYXRhLXNvdXJjZS1saW5lPSIxMTEiIGRhdGEtdWlkPSJsbmszMyIgaWQ9ImxpbmtfSGViZXJnZW1lbnRfVmlsbGEiPjxwYXRoIGNvZGVMaW5lPSIxMTEiIGQ9Ik0xNDg0LjY3MDksNjMzLjc1NTQgQzE1MjQuNzE2Nyw3MTguMjM2NyAxNTU2LjY2ODgsNzk3LjY1IDE1NzIuMjcyOSw4NDkuOTE2NyIgZmlsbD0ibm9uZSIgaWQ9IkhlYmVyZ2VtZW50LWJhY2t0by1WaWxsYS0xIiBzdHlsZT0ic3Ryb2tlOiMxODE4MTg7c3Ryb2tlLXdpZHRoOjEuNDU4MzsiLz48cG9seWdvbiBmaWxsPSJub25lIiBwb2ludHM9IjE0NzMuNDI3MSw2MTAuMDM1NCwxNDc2Ljc2NDIsNjM3LjUwMzQsMTQ5Mi41Nzc1LDYzMC4wMDc1LDE0NzMuNDI3MSw2MTAuMDM1NCIgc3R5bGU9InN0cm9rZTojMTgxODE4O3N0cm9rZS13aWR0aDoxLjQ1ODM7Ii8+PC9nPjwhLS1yZXZlcnNlIGxpbmsgQ2xpZW50IHRvIFJlc2VydmF0aW9uLS0+PGcgY2xhc3M9ImxpbmsiIGRhdGEtZW50aXR5LTE9IkNsaWVudCIgZGF0YS1lbnRpdHktMj0iUmVzZXJ2YXRpb24iIGRhdGEtc291cmNlLWxpbmU9IjExMyIgZGF0YS11aWQ9ImxuazM0IiBpZD0ibGlua19DbGllbnRfUmVzZXJ2YXRpb24iPjxwYXRoIGNvZGVMaW5lPSIxMTMiIGQ9Ik00NzYuODQwNiw1ODcuOTcyNCBDNTI5Ljc3ODEsNjMwLjgzMjggNTc5LjUyNzEsNjcxLjA5NTggNjM5LjEyOTIsNzE5LjM1MjEiIGZpbGw9Im5vbmUiIGlkPSJDbGllbnQtYmFja3RvLVJlc2VydmF0aW9uIiBzdHlsZT0ic3Ryb2tlOiMxODE4MTg7c3Ryb2tlLXdpZHRoOjEuNDU4MzsiLz48cG9seWdvbiBmaWxsPSJub25lIiBwb2ludHM9IjQ2My4yMzk2LDU3Ni45NjA0LDQ2Ni4zNjk0LDU4Ny4wMDAxLDQ3Ni44NDA2LDU4Ny45NzI0LDQ3My43MTA3LDU3Ny45MzI3LDQ2My4yMzk2LDU3Ni45NjA0IiBzdHlsZT0ic3Ryb2tlOiMxODE4MTg7c3Ryb2tlLXdpZHRoOjEuNDU4MzsiLz48cG9seWdvbiBmaWxsPSIjMDAwMDAwIiBwb2ludHM9IjU4OS43Mjk5LDY2OS41MjUzLDU4Mi4xNzQzLDY1Ny44OTQ0LDU3Ni43ODA4LDY2NC41NTY4LDU4OS43Mjk5LDY2OS41MjUzIiBzdHlsZT0ic3Ryb2tlOiMwMDAwMDA7c3Ryb2tlLXdpZHRoOjEuNDU4MzsiLz48dGV4dCBmaWxsPSIjMDAwMDAwIiBmb250LWZhbWlseT0ic2Fucy1zZXJpZiIgZm9udC1zaXplPSIxOC45NTgzIiBsZW5ndGhBZGp1c3Q9InNwYWNpbmciIHRleHRMZW5ndGg9Ijc1LjgzMzMiIHg9IjU5Ny4xODc1IiB5PSI2NzIuNzEzMiI+ZWZmZWN0dWU8L3RleHQ+PHRleHQgZmlsbD0iIzAwMDAwMCIgZm9udC1mYW1pbHk9InNhbnMtc2VyaWYiIGZvbnQtc2l6ZT0iMTguOTU4MyIgbGVuZ3RoQWRqdXN0PSJzcGFjaW5nIiB0ZXh0TGVuZ3RoPSI5LjQ3OTIiIHg9IjQ2Ni43MzE0IiB5PSI2MDYuMzMxOCI+MTwvdGV4dD48dGV4dCBmaWxsPSIjMDAwMDAwIiBmb250LWZhbWlseT0ic2Fucy1zZXJpZiIgZm9udC1zaXplPSIxOC45NTgzIiBsZW5ndGhBZGp1c3Q9InNwYWNpbmciIHRleHRMZW5ndGg9IjM3LjkxNjciIHg9IjU4OS43NjQ4IiB5PSI3MDkuMzE2Ij4wLi4qPC90ZXh0PjwvZz48IS0tcmV2ZXJzZSBsaW5rIEhlYmVyZ2VtZW50IHRvIFJlc2VydmF0aW9uLS0+PGcgY2xhc3M9ImxpbmsiIGRhdGEtZW50aXR5LTE9IkhlYmVyZ2VtZW50IiBkYXRhLWVudGl0eS0yPSJSZXNlcnZhdGlvbiIgZGF0YS1zb3VyY2UtbGluZT0iMTE0IiBkYXRhLXVpZD0ibG5rMzUiIGlkPSJsaW5rX0hlYmVyZ2VtZW50X1Jlc2VydmF0aW9uIj48cGF0aCBjb2RlTGluZT0iMTE0IiBkPSJNMTIxNS4yMTY3LDYxMC4zNjIxIEMxMTU3LjIxODgsNjUyLjg3MjYgMTEwNS42NSw2OTAuNjY2NyAxMDQ1LjA3MDgsNzM1LjA1ODMiIGZpbGw9Im5vbmUiIGlkPSJIZWJlcmdlbWVudC1iYWNrdG8tUmVzZXJ2YXRpb24iIHN0eWxlPSJzdHJva2U6IzE4MTgxODtzdHJva2Utd2lkdGg6MS40NTgzOyIvPjxwb2x5Z29uIGZpbGw9Im5vbmUiIHBvaW50cz0iMTIyOS4zMzEzLDYwMC4wMTY3LDEyMTguODI1NSw2MDAuNDg0NSwxMjE1LjIxNjcsNjEwLjM2MjEsMTIyNS43MjI1LDYwOS44OTQzLDEyMjkuMzMxMyw2MDAuMDE2NyIgc3R5bGU9InN0cm9rZTojMTgxODE4O3N0cm9rZS13aWR0aDoxLjQ1ODM7Ii8+PHBvbHlnb24gZmlsbD0iIzAwMDAwMCIgcG9pbnRzPSIxMTU0LjIyMjksNjY5LjI0NzYsMTE2Ny4zOTU4LDY2NC45MDcyLDExNjIuMzI4Nyw2NTcuOTkzMywxMTU0LjIyMjksNjY5LjI0NzYiIHN0eWxlPSJzdHJva2U6IzAwMDAwMDtzdHJva2Utd2lkdGg6MS40NTgzOyIvPjx0ZXh0IGZpbGw9IiMwMDAwMDAiIGZvbnQtZmFtaWx5PSJzYW5zLXNlcmlmIiBmb250LXNpemU9IjE4Ljk1ODMiIGxlbmd0aEFkanVzdD0ic3BhY2luZyIgdGV4dExlbmd0aD0iNzUuODMzMyIgeD0iMTE3My4yMjkyIiB5PSI2NzIuNzEzMiI+Y29uY2VybmU8L3RleHQ+PHRleHQgZmlsbD0iIzAwMDAwMCIgZm9udC1mYW1pbHk9InNhbnMtc2VyaWYiIGZvbnQtc2l6ZT0iMTguOTU4MyIgbGVuZ3RoQWRqdXN0PSJzcGFjaW5nIiB0ZXh0TGVuZ3RoPSI5LjQ3OTIiIHg9IjEyMDguMDIxIiB5PSI2MDcuNDM3Ij4xPC90ZXh0Pjx0ZXh0IGZpbGw9IiMwMDAwMDAiIGZvbnQtZmFtaWx5PSJzYW5zLXNlcmlmIiBmb250LXNpemU9IjE4Ljk1ODMiIGxlbmd0aEFkanVzdD0ic3BhY2luZyIgdGV4dExlbmd0aD0iMzcuOTE2NyIgeD0iMTA1Ni41MDk1IiB5PSI3MjUuODMyMSI+MC4uKjwvdGV4dD48L2c+PCEtLWxpbmsgUmVzZXJ2YXRpb24gdG8gUGVyaW9kZS0tPjxnIGNsYXNzPSJsaW5rIiBkYXRhLWVudGl0eS0xPSJSZXNlcnZhdGlvbiIgZGF0YS1lbnRpdHktMj0iUGVyaW9kZSIgZGF0YS1zb3VyY2UtbGluZT0iMTE1IiBkYXRhLXVpZD0ibG5rMzYiIGlkPSJsaW5rX1Jlc2VydmF0aW9uX1BlcmlvZGUiPjxwYXRoIGNvZGVMaW5lPSIxMTUiIGQ9Ik0xMDQ1LjA0MTcsMTA0Ny40NzcxIEMxMDk0Ljc0MTcsMTA4Ni44ODEzIDExMzguODY5MywxMTIxLjg1NDYgMTE4MS4wMTUxLDExNTUuMjc5NiIgZmlsbD0ibm9uZSIgaWQ9IlJlc2VydmF0aW9uLXRvLVBlcmlvZGUiIHN0eWxlPSJzdHJva2U6IzE4MTgxODtzdHJva2Utd2lkdGg6MS40NTgzOyIvPjxwb2x5Z29uIGZpbGw9IiMxODE4MTgiIHBvaW50cz0iMTE4Ny44NzA4LDExNjAuNzE2NywxMTgxLjIxMiwxMTQ3Ljk5MDYsMTE4Mi4xNTc4LDExNTYuMTg1NywxMTczLjk2MjYsMTE1Ny4xMzE1LDExODcuODcwOCwxMTYwLjcxNjciIHN0eWxlPSJzdHJva2U6IzE4MTgxODtzdHJva2Utd2lkdGg6MS40NTgzOyIvPjx0ZXh0IGZpbGw9IiMwMDAwMDAiIGZvbnQtZmFtaWx5PSJzYW5zLXNlcmlmIiBmb250LXNpemU9IjE4Ljk1ODMiIGxlbmd0aEFkanVzdD0ic3BhY2luZyIgdGV4dExlbmd0aD0iNjYuMzU0MiIgeD0iMTEzMC45Mzc1IiB5PSIxMTE0LjU4ODIiPnAmIzIzMztyaW9kZTwvdGV4dD48dGV4dCBmaWxsPSIjMDAwMDAwIiBmb250LWZhbWlseT0ic2Fucy1zZXJpZiIgZm9udC1zaXplPSIxOC45NTgzIiBsZW5ndGhBZGp1c3Q9InNwYWNpbmciIHRleHRMZW5ndGg9IjkuNDc5MiIgeD0iMTE2NC4xODk1IiB5PSIxMTQ2LjgwODciPjE8L3RleHQ+PC9nPjwhLS1yZXZlcnNlIGxpbmsgSGViZXJnZW1lbnQgdG8gUGVyaW9kZS0tPjxnIGNsYXNzPSJsaW5rIiBkYXRhLWVudGl0eS0xPSJIZWJlcmdlbWVudCIgZGF0YS1lbnRpdHktMj0iUGVyaW9kZSIgZGF0YS1zb3VyY2UtbGluZT0iMTE2IiBkYXRhLXVpZD0ibG5rMzciIGlkPSJsaW5rX0hlYmVyZ2VtZW50X1BlcmlvZGUiPjxwYXRoIGNvZGVMaW5lPSIxMTYiIGQ9Ik0xNTc1Ljg5OTMsNjExLjIwNjYgQzE2MTEuMDQ1MSw2NDUuNjgxNiAxNjMwLjgxMDQsNjczLjk4MzMgMTY1MC4xMDQyLDcxOC45NTgzIEMxNzA4LjM2NDYsODU0Ljc3MjkgMTcyNy4xOTE3LDkyNS4zODU0IDE2NTAuMTA0MiwxMDUxLjQ1ODMgQzE2MDYuNzA0MiwxMTIyLjQzNTQgMTUyNi44MTY3LDExNjcuNTI3MSAxNDUyLjg2NDYsMTE5NS41NzA4IiBmaWxsPSJub25lIiBpZD0iSGViZXJnZW1lbnQtYmFja3RvLVBlcmlvZGUiIHN0eWxlPSJzdHJva2U6IzE4MTgxODtzdHJva2Utd2lkdGg6MS40NTgzOyIvPjxwb2x5Z29uIGZpbGw9Im5vbmUiIHBvaW50cz0iMTU2My40MDYyLDU5OC45NTIxLDE1NjUuNTY3OSw2MDkuMjQzNywxNTc1Ljg5OTMsNjExLjIwNjYsMTU3My43Mzc2LDYwMC45MTUsMTU2My40MDYyLDU5OC45NTIxIiBzdHlsZT0ic3Ryb2tlOiMxODE4MTg7c3Ryb2tlLXdpZHRoOjEuNDU4MzsiLz48dGV4dCBmaWxsPSIjMDAwMDAwIiBmb250LWZhbWlseT0ic2Fucy1zZXJpZiIgZm9udC1zaXplPSIxOC45NTgzIiBsZW5ndGhBZGp1c3Q9InNwYWNpbmciIHRleHRMZW5ndGg9IjEzMi43MDgzIiB4PSIxNzAxLjE0NTgiIHk9Ijg5My42NTA3Ij5kaXNwb25pYmlsaXRlczwvdGV4dD48dGV4dCBmaWxsPSIjMDAwMDAwIiBmb250LWZhbWlseT0ic2Fucy1zZXJpZiIgZm9udC1zaXplPSIxOC45NTgzIiBsZW5ndGhBZGp1c3Q9InNwYWNpbmciIHRleHRMZW5ndGg9IjkuNDc5MiIgeD0iMTU3NC45NDg1IiB5PSI2MDUuNTgxMSI+MTwvdGV4dD48dGV4dCBmaWxsPSIjMDAwMDAwIiBmb250LWZhbWlseT0ic2Fucy1zZXJpZiIgZm9udC1zaXplPSIxOC45NTgzIiBsZW5ndGhBZGp1c3Q9InNwYWNpbmciIHRleHRMZW5ndGg9IjM3LjkxNjciIHg9IjE0NjQuMjE3NCIgeT0iMTE5MS4zMTc4Ij4wLi4qPC90ZXh0PjwvZz48IS0tcmV2ZXJzZSBsaW5rIENvbGxlY3Rpb25IZWJlcmdlbWVudHMgdG8gSGViZXJnZW1lbnQtLT48ZyBjbGFzcz0ibGluayIgZGF0YS1lbnRpdHktMT0iQ29sbGVjdGlvbkhlYmVyZ2VtZW50cyIgZGF0YS1lbnRpdHktMj0iSGViZXJnZW1lbnQiIGRhdGEtc291cmNlLWxpbmU9IjExNyIgZGF0YS11aWQ9ImxuazM4IiBpZD0ibGlua19Db2xsZWN0aW9uSGViZXJnZW1lbnRzX0hlYmVyZ2VtZW50Ij48cGF0aCBjb2RlTGluZT0iMTE3IiBkPSJNMTc0Ny4xNzUxLDIxMS4zMDM2IEMxNjg5LjI3OTIsMjU0Ljc2MTkgMTYyOS42NzI5LDI5OS41MTI1IDE1NjMuNzcwOCwzNDguOTkzNyIgZmlsbD0ibm9uZSIgaWQ9IkNvbGxlY3Rpb25IZWJlcmdlbWVudHMtYmFja3RvLUhlYmVyZ2VtZW50IiBzdHlsZT0ic3Ryb2tlOiMxODE4MTg7c3Ryb2tlLXdpZHRoOjEuNDU4MzsiLz48cG9seWdvbiBmaWxsPSIjMTgxODE4IiBwb2ludHM9IjE3NjEuMTcwOCwyMDAuNzk3OSwxNzUwLjY3MTEsMjAxLjM4NTUsMTc0Ny4xNzUxLDIxMS4zMDM2LDE3NTcuNjc0OCwyMTAuNzE2LDE3NjEuMTcwOCwyMDAuNzk3OSIgc3R5bGU9InN0cm9rZTojMTgxODE4O3N0cm9rZS13aWR0aDoxLjQ1ODM7Ii8+PHRleHQgZmlsbD0iIzAwMDAwMCIgZm9udC1mYW1pbHk9InNhbnMtc2VyaWYiIGZvbnQtc2l6ZT0iMTguOTU4MyIgbGVuZ3RoQWRqdXN0PSJzcGFjaW5nIiB0ZXh0TGVuZ3RoPSI0Ny4zOTU4IiB4PSIxNjU4Ljg1NDIiIHk9IjI5Ni40NjMyIj5pdGVtczwvdGV4dD48dGV4dCBmaWxsPSIjMDAwMDAwIiBmb250LWZhbWlseT0ic2Fucy1zZXJpZiIgZm9udC1zaXplPSIxOC45NTgzIiBsZW5ndGhBZGp1c3Q9InNwYWNpbmciIHRleHRMZW5ndGg9IjkuNDc5MiIgeD0iMTczOC42NzA2IiB5PSIyMzAuMTUwNiI+MTwvdGV4dD48dGV4dCBmaWxsPSIjMDAwMDAwIiBmb250LWZhbWlseT0ic2Fucy1zZXJpZiIgZm9udC1zaXplPSIxOC45NTgzIiBsZW5ndGhBZGp1c3Q9InNwYWNpbmciIHRleHRMZW5ndGg9IjM3LjkxNjciIHg9IjE1NzUuMTI4MSIgeT0iMzM5LjY3NzkiPjAuLio8L3RleHQ+PC9nPjwhLS1TUkM9W1pMUkRSaml1NEJ4aEFPWFNnaFBuRFdOczk2RzM2OGFOQVAyd1dVbHNrZzJlU1M4a0hNZjlvYVd0eFZqaWRZQ2xqYURJYWFkOURmOTNlQ21WWG4tXy1JUmNSb3VSZ2NiRGNBMzZwQXRMbDZtalY2SEFWazdfMFpkRnAxMUlEUG55LUZxeW96d0dGX21GY0pDQmhKUmFEdDg3c1lXZm1OSWtaOVI2UWlmaUEzcHVvTEQ2bzhuOExQRTJWQzdKdkJxdEQxZWNEZ1dmNXg3ZkZSYTdrckhyX2RQWWxWRnZVbm1CTG9JckZfTXpfR2VYQW9LV1psWUxQUTdmQXk1MU1XQUY1Y0dya0tENTRJVGZjRVFEdktmWV9ncllMNW9ac0gtIC11UzlncTNhNnM5Vl9EMVh0bjJxdHprODZJajN0SzZGbkluLUFKajFSWjZxQUY4SWgyYXg5R242NWtUSUwzd0JrQjl6NGZNbTV2a1dZeWhaMGhVQUxaeTFrYzBsdmZBSWJxa1A5b0xDSTdJUEJUeGMyWHZDZ3JQTzJVV0dGbVpFbFFZd3ZXekFuTzN6Q3NFUHRYT0pJcVNkdnY2ZjNud1BqNml0aHJ1UlYwbUJ5VVJEMV81UEdqU21YYTh5WTNsVV9MRXFNUTNqd3ZVeEZmLXZYdWdlVEJaaTA5Q0ZPbV9kOHlwOXc2dUNiNEU2WlhPVkhNaHF5LXFJcXV0WlRsM21GMjBtWlhoTDBSb1kzZFhla0RsR0RuYnZwcW9aOXFSUFpiSmtoTDhXN2JHYjF4WkhfcDV6M1h0cjRQS011eVg2RUhrT1pUQ01jV21pV1R5REwzRkNxeGZqa0RmbXpXQnU2WXpEakhneXhhZnc4RjhKTlpVWDB0NjVzSWd2S3hJR0VsdkZQeDF3SEx3YWtKT0lBTGVZQldUSGVWcEdaMndDRFBUcDJHMENkVV9ubnNOOFJldXBBcVpxVDVuWGpVak5lMEJfaVVlV3lsRFNIdmt5MVFwTVQ2TlZZSmpXVVE1cmdrQzRZT1kxa2JEM3BreTVnRFkxdEVFZVI1dUJrektfUHhDUzBiVVZic1R5NUZ2YUkwYldPWnV4TmVNcDRhV0ZsTzJvcmhWS3N6bjRtM2pETlQ2RmVSR3lIME9nYUdHeXNiQnY4QkR1cDU2eXZpTGJiZ0hZejVGZ2tERDNuMGJZWlhZS0pqZFF2LU1ZUVFEQzhfYV9odmdETld1UlA4YUdhZXo1aF9OWFVTMDdwUkwydFZaeG1hSzZzVEdVQVhzd25fNmstTlktTXdtTi1TVkx2LVVWN3JRVTUtdnVsYnJ6bHlNaVdIaVVuVmlFejRmaHRBMVlFbk00R1hVZ3NCcXhlYmhSdVV4eTB4VFd1SzIxdzZ6Q19FbEJGNzVvU3ROOHZpWUFHQmdYbEQ0WlN1R3RpbXQ5TURxTWQxTFJmOTZmX1FnQk84NloydXM0SE5sb1NwTmYyZmlQcVhNUlR4bDJrUDNpYmRkWmpQNWNhX0hTX3B5dUlWaVZJNXZnODFkX2daVVB6d2xIWmRsTURkN211OEdnajktVGRQLXpFYWM0ajI2bXMtOXVqYUNrYXBENFNfOFVKV1BPazl0UkNQZlMtaG9UY0NNWjdpVEF4dzVIQWltREtTLWRsVGthdFlNMXUxbHVGXS0tPjwvZz48L3N2Zz4=;" vertex="1" parent="WIyWlLk6GJQsqaUBKTNV-1">
            <mxGeometry x="-280" y="-160" width="995" height="565.47" as="geometry" />
          </mxCell>
        </UserObject>
      </root>
    </mxGraphModel>
  </diagram>
</mxfile>
